<svg width="160" height="160" viewBox="0 0 160 160" fill="none" xmlns="http://www.w3.org/2000/svg">
<path d="M20.881 150.107C27.2544 146.72 34.641 147.653 41.4944 148.667C48.6144 149.733 55.761 150.587 62.961 151.12C70.4277 151.68 78.0543 152.133 85.5477 151.707C92.801 151.307 99.7343 148.987 106.881 147.84C115.254 146.507 123.761 146.4 132.161 147.493C132.294 147.52 132.294 147.307 132.161 147.28C124.694 146.32 117.094 146.267 109.628 147.227C102.134 148.187 94.9077 150.693 87.3877 151.36C79.841 152.027 72.081 151.52 64.5343 151.013C56.8277 150.48 49.201 149.573 41.5743 148.453C34.6677 147.44 27.2277 146.507 20.8277 149.92C20.6677 150 20.7744 150.16 20.881 150.107Z" fill="#180E25"/>
<path d="M119.84 150.987C132.266 147.787 144.933 154.56 157.333 151.147C157.466 151.12 157.413 150.907 157.28 150.96C144.88 154.373 132.213 147.6 119.786 150.8C119.653 150.827 119.706 151.013 119.84 150.987Z" fill="#180E25"/>
<path d="M12.8263 153.6C26.5863 150.4 40.1863 158.24 53.973 155.36C54.1063 155.333 54.053 155.147 53.9197 155.173C40.133 158.08 26.5597 150.24 12.773 153.413C12.6663 153.413 12.7197 153.627 12.8263 153.6Z" fill="#180E25"/>
<path d="M122.24 155.52C121.867 154.134 121.6 152.614 121.493 151.014C120.773 140.747 126.853 132.747 129.6 129.547C129.813 131.28 129.893 133.174 129.787 135.2C129.307 144.534 125.12 151.6 122.24 155.52Z" fill="#F7F6D4"/>
<path d="M122.24 155.52C120.64 154 118.667 151.733 117.12 148.613C113.6 141.627 114.4 134.907 114.88 132.213C116.267 134.347 117.707 136.96 118.933 140.053C121.36 146.107 122.08 151.573 122.24 155.52Z" fill="#F7F6D4"/>
<path d="M49.0939 131.52C48.8006 133.653 48.6939 136.453 49.3072 139.627C50.8272 147.493 55.7606 152.427 57.8672 154.32C58.0272 152.24 57.9739 149.68 57.4406 146.853C55.9206 139.093 51.4406 133.893 49.0939 131.52Z" fill="#F7F6D4"/>
<path d="M57.867 154.32C56.3204 153.813 56.907 146.32 58.9604 140.293C60.347 136.187 62.3204 133.093 63.787 131.093C64.6404 134.32 65.8937 140.933 62.907 147.76C61.627 150.64 59.0937 154.72 57.867 154.32Z" fill="#F7F6D4"/>
<path d="M43.44 136.854C43.9467 136.854 43.9467 136.054 43.44 136.054C42.9067 136.054 42.9067 136.854 43.44 136.854Z" fill="#EFEEF0"/>
<path d="M51.0934 136.8C52.5601 142.587 54.6134 148.213 57.2268 153.573C57.2801 153.68 57.4668 153.6 57.3868 153.467C54.7734 148.107 52.7201 142.507 51.2801 136.747C51.2534 136.64 51.0668 136.693 51.0934 136.8Z" fill="#565510"/>
<path d="M58.0799 153.467C59.7066 149.013 61.3599 144.56 63.0666 140.133C63.1199 140 62.9066 139.973 62.8799 140.08C61.1733 144.507 59.4933 148.96 57.8933 153.413C57.8399 153.547 58.0266 153.6 58.0799 153.467Z" fill="#565510"/>
<path d="M115.868 138.027C117.121 143.573 119.041 148.907 121.548 154C121.601 154.107 121.788 154.027 121.708 153.893C119.201 148.827 117.308 143.467 116.054 137.947C116.054 137.867 115.841 137.92 115.868 138.027Z" fill="#565510"/>
<path d="M125.733 140.187C125.066 145.227 123.893 150.16 122.266 154.96C122.213 155.094 122.426 155.147 122.453 155.014C124.08 150.214 125.226 145.28 125.92 140.24C125.92 140.134 125.733 140.08 125.733 140.187Z" fill="#565510"/>
<path d="M104.933 29.733C104.559 29.5463 102.266 28.3997 102.373 27.0663C102.479 25.5997 105.546 24.7463 106.826 24.3997C108.239 23.9997 110.053 23.8397 110.239 23.8397C110.586 23.813 110.719 23.813 110.799 23.813C111.306 23.8397 112.666 23.893 113.813 24.853C114.559 25.493 114.906 26.2663 115.119 26.7463C115.519 27.6263 115.626 28.4263 115.653 28.933C113.999 29.2797 112.053 29.5997 109.893 29.733C108.053 29.8663 106.399 29.8397 104.933 29.733Z" fill="#180E25"/>
<path d="M117.733 27.0397C116.319 29.5464 113.333 30.9597 110.559 30.4797C107.519 29.973 105.146 27.3597 104.986 24.9064C104.959 24.5064 104.879 23.1464 105.706 22.4264C106.693 21.5464 107.946 22.533 109.573 21.7864C111.173 21.0664 110.853 19.7064 112.239 19.0397C113.919 18.2397 116.719 19.093 117.999 21.1197C119.653 23.6797 117.973 26.6397 117.733 27.0397Z" fill="#180E25"/>
<path d="M104.826 29.5463C104.826 29.8663 104.88 30.293 104.96 30.7996C105.066 31.3063 105.2 32.1063 105.653 32.853C106.506 34.3196 108.053 34.853 108.453 34.9863C109.626 35.3596 110.613 35.173 111.066 35.093C112.586 34.8263 113.573 34.0263 113.866 33.7596C114.08 33.573 114.746 32.9863 115.226 31.9996C115.466 31.5196 115.786 30.8796 115.786 29.9996C115.786 29.573 115.706 29.1996 115.626 28.9596C115.413 29.0396 115.039 29.1196 114.613 29.013C114.213 28.933 113.946 28.7196 113.786 28.5863C112.613 27.653 112.48 26.7463 111.493 26.1863C111.333 26.0796 110.506 25.6263 109.493 25.7863C108.56 25.9196 107.946 26.5063 107.733 26.7196C107.44 26.9863 107.146 27.4663 106.533 28.4263C106.213 28.9063 105.973 29.3063 105.493 29.4663C105.253 29.573 105.013 29.573 104.826 29.5463Z" fill="white"/>
<path d="M115.706 29.9997C115.333 32.9597 112.826 35.1997 109.786 35.0931C107.253 34.9864 105.44 33.2264 105.066 30.7731C105.04 30.6397 104.853 30.6931 104.88 30.8264C105.28 33.5464 107.44 35.3864 110.213 35.3064C113.226 35.1997 115.52 32.9597 115.893 30.0264C115.92 29.8664 115.706 29.8664 115.706 29.9997Z" fill="#180E25"/>
<path d="M104.933 29.5461C105.28 26.6394 107.333 24.2394 110.347 23.9461C113.387 23.6794 115.333 26.0794 115.547 28.9594C115.547 29.0928 115.76 29.0928 115.76 28.9594C115.547 25.9728 113.52 23.4928 110.373 23.7594C107.253 24.0261 105.12 26.5328 104.773 29.5461C104.72 29.6794 104.933 29.6794 104.933 29.5461Z" fill="#180E25"/>
<path d="M115.679 29.0399C115.679 29.0399 115.706 29.0399 115.679 29.0399C115.812 28.9866 115.706 28.7999 115.599 28.8532C115.599 28.8532 115.599 28.8532 115.573 28.8532C115.466 28.9332 115.573 29.0932 115.679 29.0399Z" fill="#180E25"/>
<path d="M104.827 29.6263C105.52 29.8396 105.947 29.3063 106.347 28.7996C107.333 27.5729 108.027 25.8929 109.867 25.8396C112.427 25.7596 113.093 29.8129 115.707 29.0396C115.84 29.0129 115.787 28.7996 115.653 28.8529C113.813 29.3863 113.067 27.3063 111.947 26.3729C111.307 25.8396 110.507 25.5996 109.68 25.6796C108.933 25.7596 108.293 26.0796 107.76 26.6129C107.093 27.2796 105.973 29.7863 104.907 29.4663C104.747 29.4129 104.693 29.5996 104.827 29.6263Z" fill="#180E25"/>
<path d="M109.68 27.7598C109.546 28.5331 108.96 31.1998 110.133 31.4931C110.266 31.5198 110.32 31.3331 110.186 31.3065C109.253 31.0665 109.786 28.4265 109.866 27.8131C109.893 27.7065 109.706 27.6265 109.68 27.7598Z" fill="#180E25"/>
<path d="M110.213 32.3998C111.093 32.5864 112.053 31.7598 112.213 30.9064C112.24 30.7731 112.053 30.7198 112.026 30.8531C111.893 31.5731 111.04 32.3464 110.266 32.1864C110.133 32.1864 110.08 32.3731 110.213 32.3998Z" fill="#180E25"/>
<path d="M107.893 29.4395C108.04 29.4395 108.159 29.2724 108.159 29.0662C108.159 28.86 108.04 28.6929 107.893 28.6929C107.745 28.6929 107.626 28.86 107.626 29.0662C107.626 29.2724 107.745 29.4395 107.893 29.4395Z" fill="#180E25"/>
<path d="M111.866 29.3062C112.014 29.3062 112.133 29.1391 112.133 28.9329C112.133 28.7267 112.014 28.5596 111.866 28.5596C111.719 28.5596 111.6 28.7267 111.6 28.9329C111.6 29.1391 111.719 29.3062 111.866 29.3062Z" fill="#180E25"/>
<path d="M107.626 28.1331C107.706 27.9997 107.813 27.8931 107.946 27.8131C108.159 27.6797 108.293 27.7331 108.506 27.8664C108.613 27.9464 108.719 27.7597 108.613 27.7064C108.426 27.5731 108.213 27.4931 107.973 27.5997C107.759 27.7064 107.573 27.8664 107.439 28.0531C107.386 28.1331 107.546 28.2397 107.626 28.1331Z" fill="#180E25"/>
<path d="M111.414 27.7331C111.601 27.5731 111.841 27.4398 112.081 27.5465C112.267 27.6265 112.347 27.8398 112.454 28.0265C112.507 28.1331 112.694 28.0531 112.614 27.9198C112.481 27.6798 112.347 27.3865 112.054 27.3331C111.761 27.2531 111.494 27.4131 111.281 27.5998C111.174 27.6798 111.334 27.8398 111.414 27.7331Z" fill="#180E25"/>
<path d="M109.093 23.9465C109.279 23.7065 109.946 23.0131 111.039 22.8531C112.826 22.5865 114.053 24.0798 114.106 24.1598C113.653 23.9198 112.693 23.4665 111.439 23.4398C110.373 23.4398 109.546 23.7331 109.093 23.9465Z" fill="white"/>
<path d="M61.8923 27.5733C62.5857 26.9066 63.2523 26.5066 63.7323 26.2933C64.319 26 64.879 25.7333 65.6523 25.7866C66.1857 25.8133 66.639 25.9733 66.9057 26.1066C67.2523 28.2933 67.679 30.56 68.1323 32.8533C69.0123 37.1733 69.999 41.2533 71.0657 45.0933C71.9457 44.64 73.1723 44 74.6657 43.2533C79.0123 41.0666 82.9057 39.2266 86.159 37.7333C87.759 36.9866 89.839 36.08 92.2923 35.0133C93.759 37.0133 94.079 38.6933 94.159 39.7333C94.6657 46.9066 85.039 53.6266 77.839 54.8C75.5723 55.1733 73.0123 55.0666 72.799 55.0666C68.5057 54.9066 65.519 53.7333 64.8257 53.4666C63.759 53.04 62.9323 52.6133 62.319 52.2666C61.9723 51.04 61.5723 49.3333 61.279 47.28C61.0123 45.28 60.959 43.8133 60.9057 41.9466C60.799 38.1866 61.0123 35.12 61.1723 33.28C61.3057 31.7333 61.519 29.7866 61.8923 27.5733Z" fill="#6A3EA1"/>
<path d="M59.9198 14.6132C59.7598 14.3465 59.4932 13.9999 59.2798 14.0265C59.1465 14.0532 59.0398 14.2665 58.9598 14.6665C58.7732 15.6532 58.9065 16.4799 58.9065 16.5865C59.1465 17.9732 59.4132 18.7199 59.4132 18.7199C59.9198 20.0799 60.9065 22.5865 62.2665 25.8132C62.2665 26.2932 62.2665 26.7732 62.2665 27.2532C62.8532 26.7199 63.3865 26.3999 63.7865 26.1865C64.2665 25.9199 64.6665 25.7332 65.1998 25.7065C65.6798 25.6799 66.0798 25.8132 66.3198 25.8932C65.9998 25.3865 65.9998 24.9865 66.0265 24.7465C66.0532 24.5332 66.1332 24.4265 66.6132 23.4932C66.9865 22.7999 67.0398 22.6932 67.0932 22.5599C67.3332 21.9999 67.4665 21.7332 67.4665 21.3865C67.4665 20.8799 67.2532 20.2132 66.9065 20.1865C66.8532 20.1865 66.6398 20.1865 66.3732 20.6132C65.9732 18.7732 65.8932 17.2532 65.8932 16.1865C65.8932 15.3865 65.9465 14.2399 65.4398 12.8799C65.0132 11.7065 64.5332 11.4132 64.2665 11.3065C63.8932 11.1465 63.4932 11.1999 62.6932 11.3065C61.9465 11.4132 61.5998 11.4665 61.3332 11.7332C61.2798 11.8132 61.2265 11.8932 61.1198 12.9065C61.0132 14.0799 61.0132 14.6665 61.0132 15.0399C61.0132 15.0399 61.0132 15.2265 61.0132 15.3865C61.0398 15.9199 61.1465 16.8799 61.4932 18.2932C61.1732 17.1732 60.5598 15.6265 59.9198 14.6132Z" fill="white"/>
<path d="M66.4259 20.853C66.5326 20.693 66.6393 20.5597 66.7993 20.453C66.9593 20.3464 67.3859 20.1597 67.3859 20.5064C67.3859 20.6397 67.5993 20.6397 67.5993 20.5064C67.5993 20.213 67.3326 20.053 67.0659 20.1064C66.7193 20.1597 66.4526 20.4797 66.2659 20.7464C66.1859 20.853 66.3459 20.9597 66.4259 20.853Z" fill="#180E25"/>
<path d="M67.4933 21.173C67.3333 21.9997 67.0399 22.773 66.5866 23.4663C66.2666 23.973 65.9466 24.4263 65.9732 25.0663C65.9732 25.1997 66.1866 25.1997 66.1866 25.0663C66.1332 24.2397 66.7999 23.5997 67.1199 22.9063C67.3866 22.373 67.5466 21.7863 67.6799 21.1997C67.7066 21.1197 67.5199 21.0663 67.4933 21.173Z" fill="#180E25"/>
<path d="M62.2127 25.4401C61.386 23.5201 60.5594 21.5734 59.8394 19.6001C59.546 18.7734 59.2794 17.9201 59.1194 17.0401C59.0127 16.5068 58.8794 15.9201 58.9594 15.3868C59.0394 14.8268 59.2794 13.5468 59.8394 14.6668C59.8927 14.7734 60.0794 14.6934 59.9994 14.5601C59.8394 14.2668 59.706 14.0801 59.4394 13.8401C59.386 13.7868 59.3327 13.8134 59.2794 13.8668C58.266 15.3601 58.906 17.3868 59.4127 18.9601C60.1327 21.2001 61.0927 23.3601 62.026 25.5201C62.0794 25.6534 62.266 25.5468 62.2127 25.4401Z" fill="#180E25"/>
<path d="M60.2402 15.5464C60.6136 16.4264 61.0136 17.2797 61.3869 18.1597C61.4402 18.2664 61.6002 18.1864 61.5469 18.053C61.1736 17.173 60.7736 16.3197 60.4002 15.4397C60.3469 15.333 60.1869 15.4397 60.2402 15.5464Z" fill="#180E25"/>
<path d="M61.6001 17.2534C61.4134 15.5467 60.9601 13.2001 61.6534 11.5734C61.7068 11.4667 61.5201 11.4134 61.4668 11.5201C60.7735 13.1734 61.2268 15.5201 61.4134 17.2534C61.4134 17.3601 61.6001 17.3867 61.6001 17.2534Z" fill="#180E25"/>
<path d="M61.8395 11.7331C62.3195 13.4931 62.6662 15.2797 62.9595 17.0664C62.9862 17.1997 63.1728 17.1464 63.1462 17.0131C62.8795 15.1997 62.5062 13.4397 62.0262 11.6797C61.9995 11.5731 61.8128 11.6264 61.8395 11.7331Z" fill="#180E25"/>
<path d="M63.0402 11.5464C64.0268 12.9064 64.2135 15.1464 64.5068 16.773C64.5335 16.9064 64.7202 16.853 64.6935 16.7197C64.4002 15.0397 64.2402 12.853 63.2002 11.4397C63.1468 11.333 62.9602 11.4397 63.0402 11.5464Z" fill="#180E25"/>
<path d="M65.4391 12.9333C65.6525 14.0266 65.8125 15.1199 65.8658 16.2133C65.8658 16.3466 66.0791 16.3466 66.0791 16.2133C65.9991 15.0933 65.8658 13.9733 65.6258 12.8799C65.5991 12.7733 65.4125 12.8266 65.4391 12.9333Z" fill="#180E25"/>
<path d="M92.2663 34.9334C85.0663 38.0267 77.9729 41.4134 71.0129 45.0134C70.9063 45.0667 71.0129 45.2534 71.1196 45.1734C78.0796 41.5467 85.1729 38.1867 92.3729 35.0934C92.4796 35.0667 92.3729 34.88 92.2663 34.9334Z" fill="#180E25"/>
<path d="M71.0661 45.0133C69.4128 38.7733 68.0528 32.4533 66.9861 26.0533C66.9595 25.92 66.7728 25.9733 66.7995 26.1066C67.8661 32.48 69.2261 38.8 70.8795 45.0666C70.9061 45.2 71.0928 45.1466 71.0661 45.0133Z" fill="#180E25"/>
<path d="M62.3998 27.36C63.5465 26.4533 64.8532 25.52 66.3732 26.0266C66.5065 26.08 66.5598 25.8666 66.4265 25.84C64.8265 25.3066 63.4665 26.2666 62.2665 27.2C62.1332 27.28 62.2932 27.44 62.3998 27.36Z" fill="#180E25"/>
<path d="M61.7591 28.0265C60.6124 34.9065 60.5058 41.9198 61.3858 48.8265C61.4124 48.9598 61.5991 48.9598 61.5991 48.8265C60.7191 41.9198 60.8258 34.9331 61.9724 28.0798C61.9724 27.9465 61.7858 27.8931 61.7591 28.0265Z" fill="#180E25"/>
<path d="M62.7463 52.6133C70.4263 56.56 79.253 55.4133 87.0397 52.4266C87.1463 52.3733 87.1197 52.1866 86.9863 52.24C79.253 55.2266 70.4797 56.3733 62.853 52.4533C62.7463 52.3733 62.6397 52.56 62.7463 52.6133Z" fill="#180E25"/>
<path d="M75.1201 50.507C78.1068 47.867 84.3734 42.3203 87.3601 39.6803C87.9734 39.147 91.8668 35.707 92.4534 35.1736C94.6401 34.8003 97.6801 34.347 101.333 33.9203C106.587 33.307 110.293 32.907 114.907 33.0403C117.893 33.1203 122.027 33.467 126.96 34.5603C127.013 36.1336 126.987 38.2936 126.56 40.8536C126.32 42.4003 125.387 47.4936 122 53.2536C121.04 54.8803 119.467 57.5203 117.04 59.8136C108.88 67.547 96.7201 66.107 96.1334 66.027C82.2134 64.187 75.6801 51.627 75.1201 50.507Z" fill="#6A3EA1"/>
<path d="M75.1999 50.5869C79.6532 46.6402 84.1066 42.6935 88.5599 38.7469C88.6666 38.6669 88.5066 38.5335 88.4266 38.6135C83.9732 42.5602 79.5199 46.5069 75.0666 50.4535C74.9599 50.5069 75.0932 50.6669 75.1999 50.5869Z" fill="#180E25"/>
<path d="M92.4792 35.2801C102.079 33.8401 111.759 32.4534 121.466 33.5467C121.599 33.5734 121.599 33.3601 121.466 33.3334C111.759 32.2134 102.026 33.6267 92.4259 35.0667C92.2925 35.1201 92.3459 35.3067 92.4792 35.2801Z" fill="#180E25"/>
<path d="M126.694 39.2799C125.68 46.9599 122.267 54.1332 116.96 59.7599C116.88 59.8666 117.014 59.9999 117.094 59.8932C122.454 54.2132 125.867 46.9865 126.907 39.2532C126.907 39.1465 126.72 39.1465 126.694 39.2799Z" fill="#180E25"/>
<path d="M95.1469 39.0401C101.44 38.2934 107.787 38.0801 114.134 38.4001C114.64 38.4267 114.64 37.6267 114.134 37.6001C107.787 37.2801 101.44 37.4934 95.1469 38.2401C94.6402 38.2934 94.6136 39.0934 95.1469 39.0401Z" fill="#EFE9F7"/>
<path d="M91.4142 43.0934C98.7742 42.4801 106.134 42.4267 113.494 42.9867C114.001 43.0134 114.001 42.2134 113.494 42.1867C106.134 41.6534 98.7475 41.68 91.4142 42.2934C90.9075 42.3201 90.9075 43.1201 91.4142 43.0934Z" fill="#EFE9F7"/>
<path d="M67.7864 40.8267C69.893 41.2267 72.8797 41.8667 76.3464 42.88C82.293 44.5867 86.6397 46.48 91.0931 48.4C94.1864 49.7333 98.1597 51.5733 102.72 53.9733C102.4 55.2533 101.893 56.6667 101.12 58.08C97.4664 64.64 90.2664 66.64 88.133 67.1733C86.7731 66.4267 84.6397 65.28 81.9997 63.9467C74.6664 60.24 72.1864 59.6267 68.8531 57.0933C67.0931 55.7333 64.6664 53.5467 62.373 50C64.1864 46.9333 65.973 43.8933 67.7864 40.8267Z" fill="white"/>
<path d="M69.2257 40.8797C80.079 43.8397 90.6123 47.893 100.612 53.013C100.719 53.0664 100.826 52.9064 100.719 52.853C90.6923 47.733 80.159 43.653 69.279 40.693C69.1457 40.6664 69.0923 40.853 69.2257 40.8797Z" fill="#180E25"/>
<path d="M66.2932 55.9463C73.1199 59.3063 79.8665 62.8529 86.5065 66.5596C86.6132 66.6129 86.7199 66.4529 86.6132 66.3996C79.9732 62.6929 73.2265 59.1463 66.3999 55.7862C66.2932 55.7062 66.1865 55.8929 66.2932 55.9463Z" fill="#180E25"/>
<path d="M114.32 153.733L66.6396 154.373C66.6396 145.013 85.173 156.266 85.173 145.12C85.173 136.986 83.9463 125.413 83.413 123.946C88.1063 123.946 91.9997 123.946 96.693 123.946C96.1863 124.96 95.573 135.493 95.573 145.226C95.573 155.573 114.32 144.746 114.32 153.733Z" fill="#C2C018"/>
<path d="M52.7998 74.5597L41.4398 79.1731C40.4531 79.5731 39.8665 80.7997 40.0798 82.0531L43.5998 104.32C43.7865 105.493 44.6131 106.346 45.5998 106.373L57.1998 106.48C58.4265 106.48 59.3598 105.2 59.2531 103.706C59.1465 102.373 58.2131 101.386 57.1198 101.44L48.6931 101.893C47.6798 101.946 46.7731 101.066 46.5865 99.8397L44.3731 85.3331C44.1598 84.0264 44.8265 82.7464 45.8931 82.3997L54.1065 79.8397C55.3065 79.4664 55.9731 77.8664 55.4931 76.4531L55.3598 76.0264C54.9331 74.7997 53.8131 74.1597 52.7998 74.5597Z" fill="#C2C018"/>
<path d="M124.267 74.5597L139.093 79.1731C140.373 79.5731 141.147 80.7997 140.88 82.0531L136.293 104.32C136.053 105.493 134.96 106.346 133.707 106.373L118.587 106.48C117.013 106.48 115.76 105.2 115.92 103.706C116.053 102.373 117.28 101.386 118.693 101.44L129.68 101.893C131.013 101.946 132.16 101.066 132.427 99.8397L135.307 85.3331C135.573 84.0264 134.693 82.7464 133.333 82.3997L122.64 79.8397C121.067 79.4664 120.213 77.8664 120.827 76.4531L121.013 76.0264C121.493 74.7997 122.933 74.1597 124.267 74.5597Z" fill="#C2C018"/>
<path d="M111.146 129.173H65.4129C61.4929 129.173 58.2129 126.24 57.7596 122.373L50.8263 63.4664C50.2929 58.8797 53.8663 54.853 58.4796 54.853H120.426C125.173 54.853 128.773 59.093 128.053 63.7597L118.746 122.666C118.16 126.4 114.933 129.173 111.146 129.173Z" fill="#DEDC52"/>
<path d="M79.7604 87.3332C80.9871 87.6798 82.2137 88.0265 83.4404 88.3731C83.9471 88.5065 84.1604 87.7332 83.6538 87.5998C82.4271 87.2532 81.2004 86.9065 79.9737 86.5598C79.4671 86.4265 79.2537 87.1998 79.7604 87.3332Z" fill="#565510"/>
<path d="M84.2396 87.9995C85.4663 86.3462 86.6929 84.7195 87.9196 83.0662C88.2396 82.6662 87.5463 82.2662 87.2263 82.6662C85.9996 84.3195 84.7729 85.9462 83.5463 87.5995C83.2263 87.9995 83.9196 88.3995 84.2396 87.9995Z" fill="#565510"/>
<path d="M87.2266 83.1461C87.2799 89.6794 87.3066 96.2128 87.3599 102.746C87.3599 103.253 88.1599 103.253 88.1599 102.746C88.1066 96.2128 88.0799 89.6794 88.0266 83.1461C88.0266 82.6394 87.2266 82.6394 87.2266 83.1461Z" fill="#565510"/>
<path d="M80.1332 86.8265C82.3999 83.0931 84.6932 79.3865 86.9599 75.6531C87.2265 75.1998 86.5332 74.7998 86.2665 75.2531C83.9999 78.9865 81.7065 82.6931 79.4399 86.4265C79.1732 86.8531 79.8665 87.2798 80.1332 86.8265Z" fill="#565510"/>
<path d="M87.3058 75.4665C88.9858 75.4665 90.6658 75.4665 92.3458 75.4665C92.8525 75.4665 92.8525 74.6665 92.3458 74.6665C90.6658 74.6665 88.9858 74.6665 87.3058 74.6665C86.7991 74.6665 86.7991 75.4665 87.3058 75.4665Z" fill="#565510"/>
<path d="M92.2666 75.8131C92.2666 84.6931 92.2666 93.5731 92.2666 102.453C92.2666 102.96 93.0666 102.96 93.0666 102.453C93.0666 93.5731 93.0666 84.6931 93.0666 75.8131C93.0666 75.3064 92.2666 75.3064 92.2666 75.8131Z" fill="#565510"/>
<path d="M87.5731 102.533C85.9198 102.533 84.2931 102.533 82.6398 102.533C82.1331 102.533 82.1331 103.333 82.6398 103.333C84.2931 103.333 85.9198 103.333 87.5731 103.333C88.0798 103.333 88.0798 102.533 87.5731 102.533Z" fill="#565510"/>
<path d="M81.7598 104.48C81.7598 105.386 81.7598 106.293 81.7598 107.173C81.7598 107.68 82.5598 107.68 82.5598 107.173C82.5598 106.266 82.5598 105.36 82.5598 104.48C82.5598 103.946 81.7598 103.946 81.7598 104.48Z" fill="#565510"/>
<path d="M82.8805 108.4C87.2805 108.4 91.6538 108.4 96.0538 108.4C96.5605 108.4 96.5605 107.6 96.0538 107.6C91.6538 107.6 87.2805 107.6 82.8805 107.6C82.3471 107.6 82.3471 108.4 82.8805 108.4Z" fill="#565510"/>
<path d="M93.4405 103.333C94.8805 103.333 96.3472 103.333 97.7872 103.333C98.2939 103.333 98.2939 102.533 97.7872 102.533C96.3472 102.533 94.8805 102.533 93.4405 102.533C92.9339 102.533 92.9339 103.333 93.4405 103.333Z" fill="#565510"/>
<path d="M97.5195 104.239C97.5195 105.466 97.5195 106.666 97.5195 107.893C97.5195 108.399 98.3195 108.399 98.3195 107.893C98.3195 106.666 98.3195 105.466 98.3195 104.239C98.3195 103.733 97.5195 103.733 97.5195 104.239Z" fill="#565510"/>
<path d="M69.2541 82.4792C71.6007 81.6792 72.7207 79.2792 73.6807 77.1725C74.9074 74.4525 75.7341 71.5992 76.1874 68.6392C75.9474 68.6659 75.7074 68.6925 75.4674 68.7459C76.3207 70.6925 78.5874 71.1992 80.5074 71.2792C83.0407 71.3592 85.494 70.5859 87.574 69.1459C88.0007 68.8525 87.6007 68.1592 87.174 68.4525C85.4407 69.6525 83.4674 70.3992 81.3607 70.4792C79.494 70.5592 77.014 70.2925 76.1607 68.3725C76.0274 68.0792 75.4674 68.1325 75.4407 68.4792C75.0674 70.9059 74.454 73.3059 73.5474 75.5992C72.6674 77.7592 71.494 80.9325 69.094 81.7592C68.5607 81.8659 68.7474 82.6392 69.2541 82.4792Z" fill="#565510"/>
<path d="M96.7199 118.213C99.8932 115.173 104.267 113.76 108.613 114.4C108.907 114.453 109.173 114.24 109.093 113.92C108.08 109.28 109.707 104.4 113.28 101.253C113.68 100.906 113.093 100.346 112.72 100.693C108.933 104.026 107.253 109.226 108.32 114.133C108.48 113.973 108.64 113.813 108.8 113.653C104.16 112.96 99.5199 114.426 96.1332 117.68C95.7599 118 96.3466 118.586 96.7199 118.213Z" fill="#565510"/>
<path d="M97.5205 68.2396C99.2538 71.7596 104.587 71.9729 107.92 71.4396C107.76 71.2796 107.6 71.1196 107.44 70.9596C105.76 75.5196 108.107 80.4262 112.667 82.0262C113.147 82.1862 113.36 81.4129 112.88 81.2529C108.694 79.7862 106.667 75.3062 108.187 71.1729C108.294 70.8529 107.974 70.6396 107.707 70.6929C104.72 71.1729 99.7605 71.0129 98.2138 67.8396C97.9738 67.3862 97.2805 67.7862 97.5205 68.2396Z" fill="#565510"/>
<path d="M68.2665 105.12C70.2666 105.306 71.1732 108.16 71.3332 109.84C71.4932 111.52 71.0666 113.146 70.1866 114.56C69.9999 114.88 70.3999 115.36 70.7465 115.12C74.3199 112.4 77.9199 116.293 79.9999 118.933C80.3199 119.333 80.8799 118.773 80.5599 118.373C78.2666 115.466 74.2132 111.493 70.3465 114.453C70.5332 114.64 70.7199 114.826 70.9065 115.013C72.0799 113.093 72.4799 110.8 71.9465 108.613C71.5199 106.773 70.3732 104.56 68.2932 104.373C67.7332 104.266 67.7599 105.066 68.2665 105.12Z" fill="#565510"/>
<path d="M73.1467 101.76C74.1334 103.866 75.0134 106.026 75.8401 108.213C76.0267 108.693 76.8001 108.48 76.6134 108C75.7867 105.76 74.8534 103.546 73.8401 101.36C73.6267 100.88 72.9334 101.28 73.1467 101.76Z" fill="#565510"/>
<path d="M76.2927 100.239C76.8794 102.533 77.6527 104.773 78.6127 106.933C78.8261 107.413 79.5194 106.986 79.3061 106.533C78.3727 104.426 77.6261 102.266 77.0661 100.026C76.9327 99.5194 76.1594 99.7327 76.2927 100.239Z" fill="#565510"/>
<path d="M72.6401 105.093C75.1201 104.133 77.5468 103.013 79.8668 101.733C80.3202 101.493 79.9202 100.8 79.4668 101.04C77.2002 102.293 74.8535 103.386 72.4268 104.32C71.9468 104.506 72.1601 105.28 72.6401 105.093Z" fill="#565510"/>
<path d="M74.1873 107.733C76.0806 106.72 78.0273 105.733 79.974 104.826C80.4273 104.613 80.0273 103.92 79.574 104.133C77.6273 105.066 75.7073 106.026 73.7873 107.04C73.334 107.28 73.734 107.973 74.1873 107.733Z" fill="#565510"/>
<path d="M28.7739 69.7333C27.9739 69.5467 26.8272 69.3333 25.4406 69.12C20.6672 68.4533 14.1339 68.4267 13.8939 69.7067C13.7339 70.48 15.9472 71.44 18.9872 72.9067C22.7206 74.6933 27.9739 77.3867 34.2672 81.0933C35.2006 78.6133 36.1072 76.1333 37.0406 73.6533C36.8806 73.0933 36.3739 71.4667 34.8006 70.32C32.1606 68.4267 29.0139 69.6267 28.7739 69.7333Z" fill="#180E25"/>
<path d="M14.8542 70.1599C18.6675 70.0533 22.2142 71.6266 25.5475 73.3599C28.5875 74.9333 31.4142 76.8266 33.8409 79.2266C33.9209 79.3066 34.0809 79.1733 33.9742 79.0933C31.4142 76.5866 28.4275 74.6133 25.2275 72.9866C21.9742 71.3333 18.5342 69.8666 14.8275 69.9733C14.7475 69.9733 14.7475 70.1599 14.8542 70.1599Z" fill="#EFEEF0"/>
<path d="M24.2405 69.0933C24.8805 69.4933 25.3071 70.08 25.5205 70.8C25.5471 70.9333 25.7605 70.88 25.7071 70.7467C25.4938 69.9733 25.0138 69.3333 24.3471 68.9067C24.2405 68.8533 24.1338 69.0133 24.2405 69.0933Z" fill="#EFEEF0"/>
<path d="M25.6012 69.2801C26.2412 69.6268 26.6945 70.2135 26.8278 70.9335C26.8545 71.0668 27.0411 71.0135 27.0145 70.8801C26.8545 70.1068 26.3745 69.4668 25.6812 69.0935C25.5745 69.0401 25.4945 69.2268 25.6012 69.2801Z" fill="#EFEEF0"/>
<path d="M27.0687 69.6C27.4954 69.9466 27.7621 70.4266 27.8421 70.9866C27.8687 71.12 28.0554 71.0666 28.0287 70.9333C27.9487 70.3466 27.6554 69.8133 27.2021 69.44C27.1221 69.3866 26.9621 69.52 27.0687 69.6Z" fill="#EFEEF0"/>
<path d="M28.4004 69.6534C29.2271 69.6 30.3204 69.6267 31.5737 69.92C34.2404 70.5867 35.9471 72.1867 36.6937 72.9867C37.7337 72.3734 38.7737 71.76 39.8137 71.0934C45.5737 67.4934 49.4671 64.3734 51.4137 62.8534C54.5337 60.4267 59.1737 57.0667 65.5737 53.2267C66.0804 52.6134 67.8671 50.4 67.4671 47.7334C66.9604 44.24 63.0137 41.2 57.8937 41.3867C57.3337 41.1734 56.3737 40.9067 55.2004 40.9867C54.9337 41.0134 53.7604 41.12 52.1071 42.0534C50.9071 42.7467 50.2671 43.44 48.7471 45.0134C45.2537 48.64 45.6271 48.24 45.3071 48.56C43.2804 50.8267 41.9737 52.4534 40.4804 54.32C35.2537 60.7734 34.5604 61.2267 31.5737 65.2267C30.1604 67.0934 29.0671 68.6667 28.4004 69.6534Z" fill="white"/>
<path d="M28.6403 69.2268C32.987 63.8135 37.307 58.3735 41.6803 52.9602C43.7337 50.4002 45.867 47.8935 48.2137 45.5735C49.387 44.4002 50.6137 43.2535 51.9203 42.2402C53.7603 40.8268 55.6537 40.9335 57.8403 41.4402C57.9737 41.4668 58.027 41.2802 57.8937 41.2535C56.507 40.9335 55.0137 40.6135 53.6003 41.0668C52.3737 41.4668 51.3603 42.4268 50.4003 43.2802C47.627 45.7068 45.147 48.4268 42.8003 51.2535C37.947 57.1202 33.227 63.1468 28.4537 69.0935C28.427 69.2002 28.5603 69.3335 28.6403 69.2268Z" fill="#180E25"/>
<path d="M37.227 73.1203C46.347 66.4537 55.6004 59.9737 65.0137 53.6803C65.1204 53.6003 65.0137 53.4403 64.907 53.5203C55.5204 59.8137 46.2404 66.2937 37.1204 72.9603C37.0137 73.0137 37.1204 73.2003 37.227 73.1203Z" fill="#180E25"/>
<path d="M28.4005 69.76C29.9205 69.7066 31.3872 69.8666 32.8005 70.48C34.0805 71.04 35.8405 71.8666 36.6138 73.04C36.6938 73.1466 36.8538 73.04 36.7738 72.9333C35.9738 71.7066 34.3472 70.96 33.0672 70.3733C31.5472 69.68 30.0272 69.4933 28.3738 69.5466C28.2672 69.5733 28.2672 69.76 28.4005 69.76Z" fill="#180E25"/>
<path d="M36.2406 74.5866C35.3873 74.4 34.134 74.1333 32.6407 73.9466C27.494 73.2266 20.4807 73.2 20.1873 74.56C20.0273 75.3866 22.4007 76.4266 25.654 77.9999C29.6807 79.9199 35.334 82.7999 42.1073 86.7999C43.094 84.1333 44.1073 81.4933 45.094 78.8266C44.934 78.2133 44.374 76.48 42.6673 75.2533C39.8673 73.2 36.5073 74.48 36.2406 74.5866Z" fill="#180E25"/>
<path d="M21.2543 75.04C25.3076 74.9334 29.0943 76.5867 32.641 78.4C35.9476 80.1067 39.0676 82.16 41.7343 84.7467C41.8143 84.8267 41.9743 84.6934 41.8676 84.6134C39.0943 81.8934 35.8143 79.76 32.3476 78.0267C28.881 76.2934 25.201 74.7467 21.2543 74.8534C21.121 74.8534 21.121 75.04 21.2543 75.04Z" fill="#EFEEF0"/>
<path d="M31.3606 73.8934C32.0273 74.3201 32.5073 74.9601 32.7473 75.7334C32.7739 75.8667 32.9873 75.8134 32.9339 75.6801C32.6939 74.8534 32.1873 74.1867 31.4673 73.7067C31.3606 73.6534 31.2539 73.8401 31.3606 73.8934Z" fill="#EFEEF0"/>
<path d="M32.8288 74.1069C33.5222 74.4802 34.0022 75.1202 34.1622 75.8936C34.1888 76.0269 34.3755 75.9736 34.3488 75.8402C34.1888 75.0136 33.6555 74.3202 32.9088 73.9469C32.8022 73.8669 32.6955 74.0536 32.8288 74.1069Z" fill="#EFEEF0"/>
<path d="M34.4017 74.4533C34.8817 74.8266 35.1484 75.36 35.2551 75.9466C35.2817 76.08 35.4684 76.0266 35.4417 75.8933C35.3617 75.2533 35.0417 74.6933 34.5351 74.2933C34.4551 74.2133 34.2951 74.3733 34.4017 74.4533Z" fill="#EFEEF0"/>
<path d="M68.747 40.6133C68.0536 40.7466 67.0403 40.9866 65.8936 41.5466C64.5603 42.2133 63.6803 42.9866 63.2803 43.3333C57.627 48.5333 53.8136 53.3333 53.8136 53.3333C48.107 60.5599 47.8136 59.7599 38.4803 71.3333C37.4136 72.6399 36.5603 73.7333 35.9736 74.4533C36.7736 74.4799 37.947 74.5599 39.2803 74.9333C40.1603 75.1733 41.2803 75.4933 42.5336 76.2933C43.2003 76.7199 44.2403 77.5199 45.1736 78.8799C50.6936 74.0799 56.4003 69.2799 62.2936 64.4266C67.147 60.4266 71.9736 56.5599 76.747 52.8266C77.627 51.1999 77.707 49.8666 77.6536 49.0666C77.4403 45.3599 73.8936 41.9199 68.747 40.6133Z" fill="white"/>
<path d="M67.7614 40.7468C64.6148 41.6002 62.3748 43.9468 60.2148 46.2668C57.3614 49.3068 54.5614 52.3735 51.7881 55.4935C46.3214 61.6535 41.0148 67.9735 35.8948 74.4268C35.8148 74.5335 35.9481 74.6668 36.0281 74.5602C40.9348 68.3735 46.0015 62.2935 51.2281 56.3735C53.8148 53.4402 56.4281 50.5602 59.0948 47.6802C61.5748 45.0135 64.1081 41.9202 67.7614 40.9068C67.9481 40.8802 67.8948 40.6935 67.7614 40.7468Z" fill="#180E25"/>
<path d="M76.0801 53.3069C65.6535 61.4402 55.4401 69.8136 45.4134 78.4536C45.3068 78.5336 45.4668 78.6669 45.5468 78.5869C55.5735 69.9469 65.7868 61.5736 76.2135 53.4402C76.3201 53.3602 76.1601 53.2269 76.0801 53.3069Z" fill="#180E25"/>
<path d="M36.2941 74.88C37.8408 74.3467 39.9741 75.12 41.3874 75.8133C42.8541 76.5067 44.1074 77.52 45.0408 78.88C45.1208 78.9867 45.2808 78.88 45.2008 78.7733C44.1874 77.28 42.7741 76.1867 41.1208 75.4667C39.7074 74.8533 37.7608 74.1867 36.2408 74.6933C36.1341 74.72 36.1874 74.9333 36.2941 74.88Z" fill="#180E25"/>
<path d="M108.693 56.5067C108.48 56.2401 108.213 55.8667 107.973 55.4134C107.84 55.1467 107.547 54.5867 107.307 53.7334C107.147 53.2001 107.173 53.0401 106.933 51.4667C106.933 51.4667 106.8 50.4267 106.507 49.0401C106.293 47.9201 106.16 47.4667 105.787 47.3067C105.52 47.2001 105.2 47.2534 104.96 47.3867C104.693 47.5467 104.533 47.8667 104.453 48.4801C104.373 49.0134 104.293 49.8401 104.453 50.9067C104.08 50.8801 103.573 50.8267 102.987 50.8267C100.96 50.7734 99.5468 50.7467 99.1201 51.4667C99.0134 51.6534 98.8268 52.1334 99.3068 53.1201C99.2534 53.2001 98.9068 53.6534 99.0134 54.2667C99.0668 54.6667 99.2801 54.9334 99.3868 55.0401C99.3334 55.2267 99.2001 55.6534 99.3334 56.1867C99.4668 56.8001 99.8401 57.1467 100 57.2801C100.187 57.6001 100.507 58.0267 101.04 58.3201C101.493 58.5601 101.733 58.5334 102.827 58.6934C103.813 58.8534 104.427 58.9334 105.093 59.2001C105.76 59.4667 106.24 59.8401 106.533 60.0801C106.693 59.5467 106.96 58.8001 107.44 58.0001C107.893 57.3334 108.32 56.8534 108.693 56.5067Z" fill="white"/>
<path d="M112.907 34.5863C113.52 33.9997 114.4 33.253 115.52 32.4263C116.4 31.7863 117.52 30.9863 119.12 30.213C121.974 28.8263 123.92 28.7463 124.4 28.7197C125.52 28.693 126.214 28.853 126.8 29.1997C127.467 29.573 127.867 30.1063 128.16 30.5063C128.827 31.3863 129.094 32.1863 129.2 32.5063C129.894 34.5597 129.387 32.453 131.174 37.3863C131.92 39.4397 132.4 40.7997 133.014 42.7997C133.574 44.5863 134.134 46.5597 134.667 48.7463C135.12 50.613 135.627 52.853 136.107 55.4397C136.214 56.053 136.534 57.893 136.854 60.293C137.334 63.813 137.04 62.933 137.414 65.5197C137.574 66.6663 137.734 67.493 137.547 68.6663C137.52 68.9063 137.334 69.893 136.72 71.0663C136.4 71.6797 135.147 73.973 132.507 75.0663C131.04 75.653 129.654 75.6797 128.987 75.6797C128.694 75.6797 128.214 75.6797 127.547 75.5997C124.934 75.2797 122.614 74.2663 121.947 73.9463C120.934 73.493 118.907 72.4797 116.32 70.5597C113.707 68.613 113.227 67.7597 109.334 64.4263C108.054 63.3597 107.014 62.5063 106.32 61.973C106.347 61.333 106.454 60.3997 106.88 59.3597C107.414 57.9997 108.187 57.093 108.694 56.5863C110.587 57.413 112.56 58.2397 114.64 59.0397C118.134 60.3997 121.494 61.5463 124.694 62.533C124.4 61.5463 123.974 60.1597 123.414 58.4797C121.254 51.973 119.014 47.1463 117.387 43.653C116.294 41.1997 114.8 38.1063 112.907 34.5863Z" fill="#6A3EA1"/>
<path d="M115.2 32.8266C116.88 31.4399 118.8 30.3199 120.88 29.6266C123.227 28.8266 126.16 28.1066 127.92 30.3466C129.227 31.9999 129.867 34.2666 130.613 36.1866C131.387 38.1866 132.107 40.2132 132.747 42.2399C135.333 50.3999 136.907 58.8532 137.467 67.3866C137.467 67.5199 137.68 67.5199 137.68 67.3866C137.04 57.6799 135.093 48.0799 131.84 38.9066C131.067 36.7199 130.24 34.5599 129.307 32.4532C128.613 30.8532 127.733 29.1732 125.893 28.7199C124 28.2666 121.733 29.0399 120 29.7332C118.213 30.4532 116.56 31.4666 115.067 32.6932C114.96 32.7466 115.093 32.9066 115.2 32.8266Z" fill="#180E25"/>
<path d="M117.226 43.4399C120.08 49.1999 122.453 55.1732 124.346 61.3066C124.373 61.4399 124.586 61.3866 124.533 61.2532C122.64 55.0932 120.24 49.1199 117.386 43.3332C117.36 43.2266 117.173 43.3332 117.226 43.4399Z" fill="#180E25"/>
<path d="M108.801 56.6131C113.761 58.7198 118.801 60.6131 123.921 62.2664C124.054 62.3198 124.107 62.1064 123.974 62.0798C118.881 60.4264 113.841 58.5331 108.907 56.4531C108.774 56.3998 108.667 56.5598 108.801 56.6131Z" fill="#180E25"/>
<path d="M108.586 56.5598C107.12 57.8132 106.32 59.6265 106.426 61.5465C106.426 61.6798 106.64 61.6798 106.64 61.5465C106.56 59.6532 107.306 57.9198 108.746 56.6932C108.826 56.6132 108.693 56.4798 108.586 56.5598Z" fill="#180E25"/>
<path d="M106.826 62.0534C111.573 66.8001 116.586 71.8934 122.933 74.4267C125.84 75.5734 129.226 76.2667 132.266 75.2001C135.36 74.1334 136.8 71.6267 137.653 68.6401C137.68 68.5067 137.493 68.4534 137.466 68.5867C136.453 72.1601 134.426 74.8267 130.56 75.4134C127.28 75.9201 123.893 74.8001 121.013 73.3334C115.626 70.5867 111.226 66.1334 106.986 61.9201C106.88 61.8134 106.72 61.9467 106.826 62.0534Z" fill="#180E25"/>
<path d="M104.587 51.1999C104.56 50.0799 104.134 47.8933 105.334 47.3066C105.44 47.2533 105.36 47.0666 105.227 47.1466C103.867 47.8399 104.374 49.9999 104.374 51.2266C104.374 51.3333 104.587 51.3333 104.587 51.1999Z" fill="#180E25"/>
<path d="M105.813 47.6533C107.333 50.32 106.347 53.8133 108.453 56.2133C108.533 56.32 108.667 56.16 108.587 56.08C106.507 53.7066 107.467 50.2133 105.973 47.5466C105.92 47.44 105.76 47.5466 105.813 47.6533Z" fill="#180E25"/>
<path d="M99.4137 51.4132C100.134 51.0399 101.12 51.0399 101.92 50.9599C102.614 50.9065 103.307 50.9065 104 50.9599C104.134 50.9599 104.134 50.7732 104 50.7465C103.067 50.6665 102.16 50.7199 101.254 50.8265C100.614 50.9065 99.9204 50.9332 99.3337 51.2265C99.2004 51.2799 99.307 51.4665 99.4137 51.4132Z" fill="#180E25"/>
<path d="M99.2532 53.1999C99.7332 53.7866 100.347 54.2132 101.04 54.4532C101.173 54.5066 101.227 54.2932 101.093 54.2666C100.4 54.0266 99.8398 53.6266 99.3865 53.0666C99.3065 52.9599 99.1732 53.0932 99.2532 53.1999Z" fill="#180E25"/>
<path d="M99.0925 54.6131C99.3325 55.5198 100.532 56.1065 101.332 56.4265C101.439 56.4798 101.492 56.2931 101.386 56.2398C100.666 55.9465 99.5191 55.3865 99.3058 54.5865C99.2525 54.4265 99.0391 54.4798 99.0925 54.6131Z" fill="#180E25"/>
<path d="M99.4131 56.64C99.8664 57.2 100.293 58.0267 100.96 58.3734C101.626 58.6934 102.506 58.7467 103.226 58.8267C103.36 58.8267 103.36 58.64 103.226 58.6134C102.506 58.5334 101.28 58.48 100.72 57.9467C100.266 57.5467 99.9464 56.96 99.5731 56.5067C99.4664 56.4 99.3331 56.56 99.4131 56.64Z" fill="#180E25"/>
<path d="M104.159 58.9866C105.013 59.1733 105.813 59.5733 106.479 60.1333C106.586 60.2133 106.719 60.08 106.613 60C105.919 59.4133 105.093 59.0133 104.213 58.8C104.079 58.7733 104.026 58.96 104.159 58.9866Z" fill="#180E25"/>
</svg>
