<svg width="240" height="240" viewBox="0 0 240 240" fill="none" xmlns="http://www.w3.org/2000/svg">
<path d="M60.3598 31.9199C60.3598 32.8799 62.2398 142.72 62.2398 142.72L182.52 165.24L186.88 42.3199L60.3598 31.9199Z" fill="white" stroke="#180E25" stroke-width="0.75" stroke-miterlimit="10"/>
<path d="M60.36 31.9201L12 27.8401L22.16 148.6L62.24 142.72L60.36 31.9201Z" fill="white" stroke="#180E25" stroke-width="0.75" stroke-miterlimit="10"/>
<path d="M186.88 42.3204L230.68 41.6804L218.88 191.08L182.52 165.24L186.88 42.3204Z" fill="white" stroke="#180E25" stroke-width="0.75" stroke-miterlimit="10"/>
<path d="M35.9598 29.8401L45.2798 145.2" stroke="#180E25" stroke-width="3" stroke-miterlimit="10"/>
<path d="M15.4799 69L60.3599 67.2" stroke="#180E25" stroke-width="3" stroke-miterlimit="10"/>
<path d="M19.1202 112.36L61.6402 107.24" stroke="#180E25" stroke-width="3" stroke-miterlimit="10"/>
<path d="M205.08 42.0403L197.92 176.16" stroke="#180E25" stroke-width="3" stroke-miterlimit="10"/>
<path d="M183.88 126.92L222.6 144.12" stroke="#180E25" stroke-width="3" stroke-miterlimit="10"/>
<path d="M185.72 75.3601L227.44 83.0801" stroke="#180E25" stroke-width="3" stroke-miterlimit="10"/>
<path d="M105.52 141.4C105.36 144.44 105.2 147.48 105.04 150.52C118.36 153.04 131.72 155.52 145.04 158.04C144.96 157.12 144.92 155.92 144.8 154.52C144.4 148.44 144.28 147.16 144.04 145.44C143.88 144.36 143.6 142.76 143.12 140.8C130.56 141 118.04 141.2 105.52 141.4Z" fill="white"/>
<path d="M105.36 141.4C105.24 144.2 105.08 146.96 104.96 149.76C104.96 149.96 105.24 149.96 105.28 149.76C105.4 146.96 105.56 144.2 105.68 141.4C105.68 141.2 105.4 141.2 105.36 141.4Z" fill="#180E25"/>
<path d="M143.4 142.04C144.04 146.4 144.44 150.76 144.68 155.16C144.68 155.36 145 155.36 145 155.16C144.8 150.72 144.36 146.32 143.72 141.96C143.68 141.8 143.4 141.88 143.4 142.04Z" fill="#180E25"/>
<path d="M120.52 151.4C121.36 152.16 122.16 152.96 122.88 153.84C123 154 123.2 153.76 123.08 153.64C122.36 152.76 121.56 151.96 120.72 151.2C120.6 151.08 120.4 151.28 120.52 151.4Z" fill="#180E25"/>
<path d="M100 77.0401C99.6403 78.2401 99.1203 80.0801 98.8003 82.3601C98.4003 85.1601 98.4803 87.2401 98.5603 89.7201C98.8803 98.2801 99.0403 102.68 99.6003 107.6C99.8403 109.8 100.12 111.64 100.36 113.4C101.12 118.6 102.64 127.76 105.52 141.32C106.8 142 108.6 142.88 110.8 143.68C116.92 145.96 122.32 146.36 125.64 146.36C130.2 146.36 133.72 145.68 135.6 145.24C138.68 144.52 141.24 143.52 143.2 142.64C143.44 141.08 143.8 138.68 144.24 135.76C145.04 130.72 145.72 127 145.84 126.36C146.6 122.12 147.92 112.36 150.36 89.4001C149.96 88.4001 149.28 86.9201 147.96 85.6001C144.92 82.4801 140.8 82.2001 137.56 81.8401C128.16 80.7601 130.8 79.4001 119.56 77.8801C112.28 77.0401 105.68 76.8401 100 77.0401Z" fill="#6A3EA1"/>
<path d="M100 77.2C116.4 76.64 132.72 79.56 147.88 85.84C148.04 85.92 148.12 85.64 147.96 85.56C132.8 79.28 116.4 76.32 100 76.92C99.8001 76.92 99.8001 77.2 100 77.2Z" fill="#180E25"/>
<path d="M98.6 84.0397C97.48 103.2 101.44 122.08 105.44 140.68C105.48 140.88 105.76 140.8 105.72 140.6C101.72 122 97.8 103.16 98.92 84.0397C98.92 83.8797 98.64 83.8797 98.6 84.0397Z" fill="#180E25"/>
<path d="M106.4 141.96C117.88 147.72 131.52 148.04 143.28 142.84C143.44 142.76 143.32 142.52 143.12 142.6C131.48 147.8 117.92 147.48 106.56 141.72C106.36 141.64 106.24 141.88 106.4 141.96Z" fill="#180E25"/>
<path d="M149.84 90.1197C148.6 107.28 146.36 124.36 143.08 141.24C143.04 141.44 143.32 141.52 143.36 141.32C146.6 124.4 148.88 107.28 150.12 90.1197C150.12 89.9197 149.84 89.9197 149.84 90.1197Z" fill="#180E25"/>
<path d="M112.4 76.1202C112.12 76.2002 111.16 76.5202 109.84 76.5602C109.4 76.6002 108.6 76.6002 107.64 76.4002C106.72 76.2002 105.68 76.0002 104.84 75.1602C103.44 73.8002 103.56 71.8402 103.6 71.5602C103.72 70.2002 104.4 69.3202 105 68.4802C106.44 66.6001 108.24 65.8401 108.68 65.6801C110.36 65.0401 111.8 65.1201 112.72 65.1601C114 65.2401 115.6 65.8802 118.8 67.1202C119.64 67.4402 121.36 68.1202 123.52 69.2002C125.36 70.1202 125.84 70.5202 126.24 71.0002C127.4 72.3602 127.6 74.0002 127.68 74.7602C127.8 75.7202 127.92 76.6002 127.56 77.4802C126.96 79.0802 125.12 80.2802 123.44 80.4802C119.04 81.0802 115.64 75.2402 112.4 76.1202Z" fill="#180E25"/>
<path d="M111.56 76.3198C111.52 76.9998 111.52 77.9998 111.72 79.1598C111.92 80.4398 112.16 81.8398 113.16 83.2798C114 84.4798 115 85.1598 115.6 85.5198C116 85.7598 117.04 86.3198 118.56 86.5198C119.12 86.5998 120.4 86.7198 121.92 86.2398C123.6 85.7198 124.68 84.8398 124.96 84.5998C125.72 83.9198 126.2 83.2398 126.4 82.8398C126.8 82.1598 128.08 80.0398 127.36 77.7198C127 76.5198 126.24 75.7598 125.96 75.4798C124.76 74.3198 123.4 73.9598 122.84 73.8798C120.8 73.7598 119.28 74.0798 118.24 74.3998C116.72 74.8798 115.76 75.5598 113.6 76.0398C112.8 76.1998 112.04 76.2798 111.56 76.3198Z" fill="white"/>
<path d="M111.44 76.3201C111.48 78.8001 111.64 81.4001 113.16 83.4802C114.52 85.3602 116.68 86.5202 119 86.7202C123.52 87.0402 128.24 83.4402 127.36 78.6402C127.32 78.4402 127.04 78.5201 127.08 78.7201C128.04 83.9202 122.28 87.3602 117.72 86.2002C113.04 85.0002 111.88 80.6401 111.8 76.3601C111.72 76.1201 111.44 76.1201 111.44 76.3201Z" fill="#180E25"/>
<path d="M117.36 77.0798C117 78.5198 116 83.1598 118.4 83.3198C118.6 83.3198 118.6 83.0398 118.4 82.9998C118.04 82.6398 117.72 82.3198 117.36 81.9598C117.32 81.6398 117.28 81.2798 117.24 80.9598C117.2 80.5598 117.2 80.1998 117.24 79.7998C117.28 78.8798 117.4 77.9998 117.64 77.1198C117.68 76.9998 117.4 76.9198 117.36 77.0798Z" fill="#180E25"/>
<path d="M117.52 74.4399C113.88 75.5599 108.32 78.1599 104.96 75.0799C101.12 71.5999 106.36 66.3599 109.84 65.4399C113.56 64.4399 118.8 67.1999 122.08 68.7199C123.52 69.3999 125.24 70.0799 126.28 71.3199C127.8 73.0399 127.6 75.4399 127.4 77.5599C127.4 77.7599 127.68 77.7599 127.72 77.5599C127.88 75.5599 128.08 73.3199 126.88 71.5999C125.68 69.8399 123.4 68.9999 121.52 68.1599C117.32 66.2799 111.92 63.4399 107.56 66.1599C104.84 67.8399 101.72 71.7199 104.32 74.8799C107.48 78.7199 113.92 75.8799 117.6 74.7199C117.76 74.6799 117.68 74.3599 117.52 74.4399Z" fill="#180E25"/>
<path d="M117.799 74.6801C121.439 73.6801 125.679 73.4401 127.239 77.7601C127.319 77.9601 127.599 77.8801 127.519 77.6801C125.919 73.2001 121.559 73.3601 117.719 74.4001C117.519 74.4401 117.599 74.7201 117.799 74.6801Z" fill="#180E25"/>
<path d="M115.44 79.7199C115.683 79.7199 115.88 79.4154 115.88 79.0399C115.88 78.6643 115.683 78.3599 115.44 78.3599C115.197 78.3599 115 78.6643 115 79.0399C115 79.4154 115.197 79.7199 115.44 79.7199Z" fill="#180E25"/>
<path d="M121.84 79.7199C122.083 79.7199 122.28 79.4154 122.28 79.0399C122.28 78.6643 122.083 78.3599 121.84 78.3599C121.597 78.3599 121.4 78.6643 121.4 79.0399C121.4 79.4154 121.597 79.7199 121.84 79.7199Z" fill="#180E25"/>
<path d="M110.72 78.8795C111 78.4795 111.64 77.7195 112.72 77.2795C113.08 77.1195 114.52 76.5195 116.04 77.1595C117.84 77.8795 118.4 79.6795 118.48 79.9995C118.56 80.2795 119.2 82.4395 117.8 84.1995C117.64 84.3995 116.8 85.4795 115.72 85.5995C113.96 85.7995 111.68 83.1595 110.72 78.8795Z" fill="#180E25"/>
<path d="M111.2 78.5596C110.84 78.8396 110.2 79.3596 109.72 80.1596C109.04 81.3596 109 82.5196 109 83.1596C109 83.4396 109.12 84.5196 109.76 85.6396C110.12 86.2396 110.6 87.0796 111.6 87.5196C112.76 88.0396 113.88 87.7196 114.28 87.6396C114.56 87.5596 115.36 87.3196 116.12 86.6396C116.28 86.4796 116.92 85.8796 117.32 84.8396C117.72 83.7996 117.64 82.9196 117.6 82.5196C117.52 81.4796 117.16 80.7596 117.04 80.5196C116.92 80.3196 116.56 79.5996 115.76 78.8796C115.44 78.5996 115 78.1996 114.4 77.9996C112.96 77.4796 111.52 78.3196 111.2 78.5596Z" fill="white"/>
<path d="M103.84 89.3995C104.32 88.2795 104.84 87.1195 105.32 85.9995C105.44 84.6395 105.76 82.6795 106.8 80.5595C107.4 79.3595 108.28 77.6395 110.2 76.1595C112.16 74.6395 114.2 74.1595 115.32 73.9995C116.16 74.8395 116.44 75.9595 116.08 76.7995C116 76.9995 115.84 77.2795 115.48 77.5595C115.04 77.4395 113.28 77.1195 111.6 78.1595C110.48 78.8395 109.92 79.7995 109.72 80.1995C108.96 81.5595 109 82.8795 109 83.1995C109.04 83.5995 109.08 84.6395 109.76 85.6795C110.48 86.7595 111.4 87.2795 111.84 87.4795C112.52 87.4795 113.04 87.8795 113.16 88.3595C113.24 88.7595 113.04 89.0795 113.04 89.1195C112.96 89.2395 112.8 89.4795 112.28 89.6395C111.6 89.8395 111.04 89.7195 110.4 89.6395C109.36 89.4795 108.88 89.3995 108.32 89.4395C106.88 89.4795 106.48 90.1595 105.32 90.0395C104.72 89.9195 104.16 89.6395 103.84 89.3995Z" fill="white"/>
<path d="M100 77.0398C99.16 77.2798 98 77.5998 96.6 78.0798C95.68 78.3998 93.12 79.2798 88.44 81.5598C85.2 83.1198 82.92 84.2798 80 86.1598C77.2 87.9998 76.04 89.0798 75.28 89.8798C74.68 90.5198 73.08 92.3198 72.04 94.9998C71.24 96.9998 71.36 97.9198 71.48 98.3998C71.84 99.9198 73.04 100.8 73.24 100.96C73.76 101.32 74.84 101.92 78.16 101.6C80.2 101.4 81.72 101 83.44 100.48C86.24 99.6398 88.16 99.0798 90.84 97.9998C92.44 97.3598 95.2 96.2798 98.6 94.3598C100.84 93.1198 103.68 91.3198 106.72 88.9198C106.72 88.5598 106.72 87.9598 106.44 87.2798C106.08 86.3998 105.52 85.8798 105.24 85.6798C104.08 86.0798 102.64 86.3998 101 86.4798C100.44 86.5198 99.88 86.5198 99.36 86.4798C99.56 83.3998 99.8 80.2398 100 77.0398Z" fill="#6A3EA1"/>
<path d="M99.0798 77.0398C92.2398 79.4398 85.3998 82.4398 79.3598 86.4398C76.8798 88.0798 74.5598 90.0398 73.0398 92.6398C71.9598 94.4798 70.6798 97.3998 71.5998 99.5198C72.6798 101.96 76.2398 102 78.4398 101.76C81.7198 101.4 84.9998 100.32 88.0798 99.2398C94.6798 96.9598 100.88 93.6798 106.52 89.5598C106.68 89.4398 106.52 89.1998 106.36 89.3198C101.68 92.7198 96.6398 95.5998 91.2798 97.7598C88.7198 98.7998 86.0798 99.6798 83.3598 100.4C81.9598 100.76 80.5598 101.12 79.1198 101.36C77.3598 101.64 74.4398 101.96 72.9598 100.68C72.5198 99.8398 72.0398 99.0398 71.5998 98.1998C71.5998 97.5598 71.6398 96.9598 71.7998 96.3198C71.9998 95.4798 72.2798 94.6798 72.6398 93.9198C73.2798 92.5598 74.1998 91.3198 75.1998 90.1998C77.2798 87.9598 79.8798 86.3598 82.4798 84.8398C87.7998 81.8398 93.3598 79.3198 99.1198 77.2798C99.3198 77.2798 99.2398 76.9998 99.0798 77.0398Z" fill="#180E25"/>
<path d="M83.0799 88.36C90.4799 87.8 97.8399 87.04 105.2 86.08C105.4 86.04 105.4 85.76 105.2 85.76C97.8399 86.72 90.4799 87.48 83.0799 88.04C82.8799 88.08 82.8799 88.36 83.0799 88.36Z" fill="#180E25"/>
<path d="M105.24 86.0797C106.16 86.7597 106.64 87.8397 106.56 88.9997C106.56 89.1997 106.84 89.1997 106.88 88.9997C106.96 87.7597 106.4 86.5997 105.4 85.8397C105.24 85.6797 105.12 85.9597 105.24 86.0797Z" fill="#180E25"/>
<path d="M108.04 88.9595C109.24 89.5595 112.28 90.6795 113.24 89.1595C114.16 87.6795 111.8 87.5995 111.12 87.0795C110.96 86.9595 110.76 87.1595 110.92 87.2795C111.12 87.4395 111.32 87.5595 111.56 87.6395C111.76 87.7195 112 87.7595 112.24 87.7995C112.76 87.9595 112.8 87.9195 112.84 88.5595C113.08 89.0395 112.92 89.3195 112.4 89.3195C112.16 89.4795 111.88 89.5595 111.56 89.5195C111.2 89.5595 110.84 89.4795 110.52 89.4395C109.72 89.3195 108.96 89.0795 108.2 88.6795C108 88.6395 107.84 88.8795 108.04 88.9595Z" fill="#180E25"/>
<path d="M108.76 83.0795C108.84 79.4395 112.64 76.9195 116.04 78.4395C116.2 78.5195 116.36 78.2395 116.2 78.1995C112.6 76.5995 108.56 79.1995 108.48 83.1195C108.48 83.2795 108.76 83.2795 108.76 83.0795Z" fill="#180E25"/>
<path d="M108.6 78.9998C110.64 77.0798 113.2 75.9998 116 75.8798C116.2 75.8798 116.2 75.5598 116 75.5598C113.12 75.6798 110.48 76.7998 108.4 78.7598C108.28 78.9198 108.48 79.1598 108.6 78.9998Z" fill="#180E25"/>
<path d="M108.4 77.9598C110.28 75.9598 112.68 74.6398 115.36 74.1198C115.56 74.0798 115.48 73.7998 115.28 73.8398C112.52 74.3598 110.08 75.7198 108.16 77.7598C108.08 77.8798 108.28 78.0798 108.4 77.9598Z" fill="#180E25"/>
<path d="M113.4 87.7598C115.808 87.7598 117.76 85.5392 117.76 82.7998C117.76 80.0605 115.808 77.8398 113.4 77.8398C110.992 77.8398 109.04 80.0605 109.04 82.7998C109.04 85.5392 110.992 87.7598 113.4 87.7598Z" stroke="#180E25" stroke-width="0.75" stroke-miterlimit="10"/>
<path d="M117.76 82.7999C117.64 82.2799 117.52 81.3199 117.8 80.2399C118.44 77.9599 120.48 76.9599 120.84 76.7999C121.12 76.6799 122.92 75.9599 124.72 76.9199C125 77.0799 126.32 77.7999 126.8 79.1999C126.96 79.6399 126.92 79.8399 126.84 81.9999C126.72 84.4398 126.72 84.5198 126.64 84.6798C125.6 86.1598 119.96 83.7999 117.76 82.7999Z" fill="#180E25"/>
<path d="M120.04 78.5999C119.64 78.8399 118.84 79.3999 118.24 80.4799C118.04 80.8399 117.44 82.0399 117.68 83.5999C117.72 83.9199 118.04 85.6399 119.64 86.7999C121.32 87.9999 123.12 87.7199 123.52 87.6399C124.76 87.3999 125.52 86.7599 125.92 86.4399C126.32 86.1199 127.56 85.0399 127.92 83.1599C128.28 81.3999 127.64 79.9999 127.32 79.3599C127 78.7599 126.24 77.4399 124.76 76.9599C123.16 76.4399 121.32 77.1199 120.04 78.5999Z" fill="white"/>
<path d="M147.92 85.7199C148.48 85.9199 149.28 86.2399 150.2 86.6799C152.04 87.5199 154.8 88.8399 157.6 91.4399C158.56 92.3199 160.36 94.1599 162 96.9199C163.32 99.1599 163.96 101.08 164.24 101.92C164.56 102.92 164.76 103.8 164.88 104.48C164.8 104.88 164.6 105.52 164.16 106.12C164 106.36 163.44 107.04 162.28 107.64C161.4 108.08 160.12 108.44 157.6 108.32C155.08 108.2 153.2 107.64 152.64 107.48C150.4 106.84 146.84 105.76 142.8 103C140.36 101.36 138.72 99.6399 135.48 96.2799C133.44 94.1599 130.92 91.3599 128.24 87.9999C128.28 87.5199 128.44 86.4799 129.24 85.4799C129.68 84.9199 130.16 84.5999 130.48 84.3999C132.76 85.4799 135.2 86.5199 137.76 87.5599C140.44 88.5999 143 89.5199 145.44 90.3199C146.28 88.7599 147.12 87.2399 147.92 85.7199Z" fill="#6A3EA1"/>
<path d="M130.24 85.9997C130.48 85.3997 130.76 84.3997 130.68 83.1597C130.6 81.7597 130.08 80.7597 129.56 79.8797C128.88 78.6397 128.24 77.4397 126.8 76.6397C126.28 76.3597 124.92 75.5997 123.24 75.9597C121.08 76.4397 120.12 78.3997 120 78.6797C120.36 78.4797 121.48 77.8797 122.96 78.0397C124.6 78.2397 125.6 79.2397 125.92 79.5597C126.12 79.7597 126.84 80.5597 127.16 81.8797C127.28 82.3597 127.56 83.5997 126.96 84.9597C126.88 85.1197 126.56 85.8397 125.84 86.4797C124.6 87.5997 123.12 87.7597 122.48 87.7997C121.88 87.8397 121.36 87.7997 121 87.7597C121.32 88.1197 122.04 88.7197 123.08 88.9597C125.36 89.4797 127.16 87.7197 127.28 87.5597C127.92 87.8397 128.6 88.0797 129.24 88.3597C129.64 87.5197 129.96 86.7597 130.24 85.9997Z" fill="white"/>
<path d="M122.56 87.7199C125.277 87.7199 127.48 85.5171 127.48 82.7999C127.48 80.0826 125.277 77.8799 122.56 77.8799C119.843 77.8799 117.64 80.0826 117.64 82.7999C117.64 85.5171 119.843 87.7199 122.56 87.7199Z" stroke="#180E25" stroke-width="0.75" stroke-miterlimit="10"/>
<path d="M121 87.7595C122.6 89.7995 125.24 89.0395 127.16 87.9595C127.32 87.8795 127.16 87.5995 127 87.7195C125.2 88.7595 122.72 89.5195 121.2 87.5995C121.08 87.3995 120.88 87.6395 121 87.7595Z" fill="#180E25"/>
<path d="M120.08 77.7597C120.28 77.7597 120.28 77.4397 120.08 77.4397C119.88 77.4397 119.88 77.7597 120.08 77.7597Z" fill="#180E25"/>
<path d="M120.4 77.9996C121.64 76.8796 123.48 76.9196 125.04 77.1196C125.24 77.1596 125.24 76.8396 125.04 76.7996C123.4 76.5996 121.48 76.5996 120.2 77.7596C120.04 77.9196 120.24 78.1196 120.4 77.9996Z" fill="#180E25"/>
<path d="M122.56 76.3998C124.32 76.0798 126.04 76.6798 127.24 77.9998C127.36 78.1598 127.6 77.9198 127.44 77.7998C126.16 76.3998 124.36 75.7998 122.48 76.1198C122.28 76.1598 122.36 76.4398 122.56 76.3998Z" fill="#180E25"/>
<path d="M127.04 77.1599C129.16 78.8399 130.44 81.1999 130.6 83.9198C130.6 84.1198 130.92 84.1198 130.92 83.9198C130.76 81.1599 129.48 78.6799 127.28 76.9599C127.12 76.8399 126.88 77.0399 127.04 77.1599Z" fill="#180E25"/>
<path d="M130.4 84.2399C129.12 85.0399 128.28 86.3199 128.12 87.7999C128.08 87.9999 128.4 87.9999 128.44 87.7999C128.6 86.3999 129.4 85.1999 130.6 84.4799C130.68 84.3999 130.56 84.1199 130.4 84.2399Z" fill="#180E25"/>
<path d="M130.76 84.5601C136.48 87.4 142.4 89.72 148.52 91.6C148.72 91.64 148.8 91.36 148.6 91.32C142.52 89.44 136.6 87.1201 130.92 84.3201C130.76 84.2401 130.6 84.4801 130.76 84.5601Z" fill="#180E25"/>
<path d="M147.76 85.9998C156.28 88.4398 162.88 95.5598 164.68 104.24C164.72 104.44 165 104.36 164.96 104.16C163.12 95.3998 156.44 88.1998 147.84 85.7198C147.68 85.6398 147.6 85.9198 147.76 85.9998Z" fill="#180E25"/>
<path d="M128.08 88.0395C133.16 94.7595 139.44 101.28 146.96 105.28C151.2 107.52 163.2 111.84 165.04 104.48C165.08 104.28 164.8 104.199 164.76 104.399C163.6 109.079 157.32 108.439 153.68 107.559C150.32 106.759 147.2 105.239 144.32 103.359C138.12 99.3195 132.8 93.7995 128.36 87.9195C128.24 87.7195 127.96 87.8795 128.08 88.0395Z" fill="#180E25"/>
<path d="M82.1197 144.601L73.9197 144.121L72.0397 127.561H84.2397L82.1197 144.601Z" fill="#DEDC52"/>
<path d="M78.1599 129.24C81.5178 129.24 84.2399 128.596 84.2399 127.8C84.2399 127.005 81.5178 126.36 78.1599 126.36C74.802 126.36 72.0799 127.005 72.0799 127.8C72.0799 128.596 74.802 129.24 78.1599 129.24Z" fill="white" stroke="#180E25" stroke-width="0.75" stroke-miterlimit="10"/>
<path d="M78.12 128.2C78.08 124 80.12 119.48 77.44 115.64C77 115 75.9599 115.6 76.3999 116.24C78.92 119.8 76.88 124.24 76.92 128.2C76.92 128.96 78.12 128.96 78.12 128.2Z" fill="#565510"/>
<path d="M79.9995 111.56C80.0795 114.24 78.4395 117.28 77.5595 119.76C77.3195 120.48 78.4795 120.8 78.7195 120.08C79.6395 117.4 81.2795 114.4 81.1995 111.56C81.1995 110.8 79.9995 110.8 79.9995 111.56Z" fill="#565510"/>
<path d="M73.1598 117.68C74.5198 119.24 74.2798 121.28 74.8398 123.12C75.1998 124.4 75.9198 125.44 76.8798 126.28C77.4398 126.8 78.3198 125.96 77.7198 125.44C75.0798 123.12 76.1998 119.36 73.9998 116.84C73.4798 116.24 72.6398 117.12 73.1598 117.68Z" fill="#565510"/>
<path d="M131.32 161.12C131.68 164.36 131.8 168.24 131.36 172.6C130.6 180.56 128.24 186.88 126.2 191.2C129.28 192.52 132.72 193.76 136.48 194.88C143.76 197.04 150.44 198.08 156.08 198.56C158 194.4 160.08 188.96 161.48 182.4C162.68 176.72 163.08 171.6 163.16 167.44C160.4 166.88 157.64 166.28 154.88 165.72C155.28 168.64 154 171.4 151.68 172.84C149.88 173.92 147.6 174.12 145.8 173.32C142.68 171.96 140.88 167.76 142.08 163.24C138.52 162.56 134.92 161.84 131.32 161.12Z" fill="#DEDC52"/>
<path d="M64.2797 147.8C64.6397 150.08 65.0397 153.48 65.1597 157.6C65.3997 166.76 63.9197 171.96 63.2797 178.6C62.7997 183.72 62.6797 191 64.4397 200.04C66.4397 200.4 69.5197 201.16 72.9197 202.88C82.6397 207.8 84.0797 215.08 90.8397 218.2C94.4397 219.88 100.36 220.68 110.16 216.08C110.48 214.24 111 211.44 111.8 208.08C114 198.76 116.48 192.28 117.24 190.16C119.36 184.16 121.08 174.48 118.88 158.68C100.68 155.04 82.4797 151.4 64.2797 147.8Z" fill="white" stroke="#180E25" stroke-width="0.75" stroke-miterlimit="10"/>
<path d="M30.84 177C29.68 179.8 28.28 184.08 28.12 189.36C27.96 195.24 29.44 198.48 30.08 202.72C30.8 207.56 30.52 214.64 25.72 224.12C28.68 224.8 31.68 225.56 34.72 226.32C45.28 228.96 55.44 231.84 65.16 234.88C67.2 228.04 67.72 222.44 67.8 218.76C68.08 208.04 65.28 201.44 68.52 192C69.48 189.2 70.68 187.12 71.36 185.96C57.88 183 44.36 180 30.84 177Z" fill="#DEDC52"/>
<path d="M84.1597 169.561C84.5997 174.361 84.9597 179.361 85.1997 184.481C85.8397 199.241 85.3997 213.001 84.2397 225.521C86.0797 225.561 88.7597 225.681 92.0397 226.241C100.16 227.561 105.24 230.281 108.8 231.681C113.88 233.681 121.64 235.281 133.08 233.081C133.8 225.361 133.44 219.081 132.92 214.521C131.96 206.361 130.4 203.121 130.48 196.761C130.6 189.601 132.72 183.681 134.76 179.441C117.88 176.161 101.04 172.841 84.1597 169.561Z" fill="white" stroke="#180E25" stroke-width="0.75" stroke-miterlimit="10"/>
<path d="M62.2399 142.72L9.87988 183.92" stroke="#180E25" stroke-width="3" stroke-miterlimit="10"/>
<path d="M182.52 165.24L127.16 220.16" stroke="#180E25" stroke-width="3" stroke-miterlimit="10"/>
<path d="M21.3201 174.88L144.84 202.36" stroke="#180E25" stroke-miterlimit="10"/>
<path d="M39.2397 160.8L162.72 184.88" stroke="#180E25" stroke-miterlimit="10"/>
<path d="M57.4799 146.44L177.44 170.28" stroke="#180E25" stroke-miterlimit="10"/>
<path d="M37.28 175.8C36.92 177.24 36.56 178.68 36.2 180.08C36 180.84 37.16 181.16 37.36 180.4C37.72 178.96 38.08 177.52 38.44 176.12C38.6 175.36 37.44 175.04 37.28 175.8Z" fill="#180E25"/>
<path d="M37.2401 178.16C37.7201 178.52 38.2401 178.92 38.7201 179.28C38.9601 179.48 39.4001 179.32 39.5601 179.08C39.7201 178.76 39.6001 178.44 39.3601 178.24C38.8801 177.88 38.3601 177.48 37.8801 177.12C37.6401 176.92 37.2001 177.08 37.0401 177.32C36.8401 177.64 36.9601 177.96 37.2401 178.16Z" fill="#180E25"/>
<path d="M56.52 179.361C55.88 180.881 55.2 182.361 54.56 183.881C54.24 184.601 55.28 185.201 55.6 184.481C56.24 182.961 56.92 181.481 57.56 179.961C57.84 179.241 56.8 178.641 56.52 179.361Z" fill="#180E25"/>
<path d="M55.6401 182.48C56.2401 182.92 56.8801 183.36 57.4801 183.8C58.1201 184.24 58.7201 183.2 58.0801 182.76C57.4801 182.32 56.8401 181.88 56.2401 181.44C55.6401 181 55.0401 182.04 55.6401 182.48Z" fill="#180E25"/>
<path d="M73.4399 147.2C73.3199 148.2 73.1999 149.24 73.0799 150.24C72.9999 151 74.1999 151 74.2799 150.24C74.3999 149.24 74.5199 148.2 74.6399 147.2C74.7199 146.44 73.5199 146.44 73.4399 147.2Z" fill="#180E25"/>
<path d="M101.32 153.28C101.32 154.56 101.16 155.76 100.76 157C100.52 157.72 101.68 158.04 101.92 157.32C102.32 156 102.52 154.68 102.52 153.28C102.48 152.52 101.28 152.52 101.32 153.28Z" fill="#180E25"/>
<path d="M99.6799 170.84C99.1999 172.04 98.9999 173.32 99.0799 174.6C99.1199 175.36 100.32 175.36 100.28 174.6C100.2 173.4 100.4 172.28 100.8 171.16C101.12 170.44 99.9599 170.12 99.6799 170.84Z" fill="#180E25"/>
<path d="M123.64 176.081C123.44 177.081 123.28 178.121 123.08 179.121C122.96 179.881 124.08 180.201 124.24 179.441C124.44 178.441 124.6 177.401 124.8 176.401C124.96 175.641 123.8 175.321 123.64 176.081Z" fill="#180E25"/>
<path d="M136.4 161.04C136.4 161.4 136.32 161.72 136.04 162C135.48 162.56 136.32 163.4 136.88 162.84C137.36 162.36 137.64 161.72 137.6 161.04C137.56 160.28 136.36 160.28 136.4 161.04Z" fill="#180E25"/>
<path d="M159.92 165.56C159.76 166.2 159.64 166.88 159.48 167.52C159.32 168.28 160.48 168.6 160.64 167.84C160.8 167.2 160.92 166.52 161.08 165.88C161.24 165.12 160.08 164.8 159.92 165.56Z" fill="#180E25"/>
</svg>
