<svg width="160" height="118" viewBox="0 0 160 118" fill="none" xmlns="http://www.w3.org/2000/svg">
<path d="M12.7732 106.106C26.8799 123.44 45.8132 136.693 66.8799 144.16C72.8799 146.293 79.0132 147.92 85.2799 149.066C85.4132 149.093 85.4666 148.906 85.3332 148.88C63.2266 144.8 42.4266 134.48 25.7332 119.466C21.1199 115.306 16.8266 110.8 12.9066 105.973C12.8266 105.866 12.6932 106.026 12.7732 106.106Z" fill="#DEDC52"/>
<path d="M14.2665 105.387C33.9732 102.747 53.2799 97.4666 71.5465 89.6532C76.8265 87.3866 82.0265 84.9332 87.1199 82.2666C87.2265 82.2132 87.1199 82.0266 87.0132 82.1066C69.4399 91.3066 50.6132 98.1066 31.2265 102.267C25.5999 103.467 19.9465 104.453 14.2665 105.2C14.1332 105.2 14.1332 105.413 14.2665 105.387Z" fill="#DEDC52"/>
<path d="M87.0933 82.5065C103.04 90.1865 119.387 97.9999 137.173 100.027C142.267 100.613 147.413 100.667 152.507 100.133C152.64 100.133 152.64 99.9199 152.507 99.9199C134.48 101.813 116.907 95.9465 100.667 88.6665C96.1333 86.6399 91.6533 84.4799 87.1733 82.3199C87.0933 82.2932 86.9867 82.4532 87.0933 82.5065Z" fill="#DEDC52"/>
<path d="M85.6265 149.147C90.7198 147.36 95.3598 144.56 99.8932 141.68C104.96 138.453 110.026 135.227 115.093 132C120.186 128.773 125.28 125.52 130.346 122.293C134.373 119.733 138.373 117.147 142.133 114.213C146.426 110.853 150.346 107.04 153.306 102.427C153.386 102.32 153.2 102.213 153.146 102.32C147.733 110.667 139.36 116.267 131.146 121.52C121.413 127.733 111.68 133.92 101.946 140.107C96.6931 143.44 91.4665 146.88 85.5465 148.933C85.4398 148.987 85.4932 149.2 85.6265 149.147Z" fill="#DEDC52"/>
<path d="M51.52 108.373C53.68 110.587 56.2934 112.987 59.4667 115.36C61.8934 117.173 64.2133 118.693 66.3733 119.947C69.9733 117.813 73.5733 115.68 77.1733 113.547C75.7333 113.067 74.1067 112.4 72.4267 111.467C68.4267 109.28 65.6534 106.56 63.8934 104.48C59.7334 105.787 55.6267 107.067 51.52 108.373Z" fill="white" stroke="#565510" stroke-width="0.4" stroke-miterlimit="10"/>
<path d="M58.6666 108.027C59.1733 108.027 59.1733 107.227 58.6666 107.227C58.16 107.227 58.16 108.027 58.6666 108.027Z" fill="#565510"/>
<path d="M55.0402 110.427C57.7336 109.627 60.3736 108.64 62.9602 107.52C63.0669 107.467 62.9869 107.307 62.8536 107.36C60.2936 108.48 57.6802 109.44 54.9869 110.24C54.8536 110.267 54.9069 110.48 55.0402 110.427Z" fill="#565510"/>
<path d="M58.4 110.48C59.9467 109.946 61.4134 109.306 62.8534 108.533C62.96 108.48 62.8534 108.293 62.7467 108.373C61.3334 109.146 59.8667 109.786 58.3467 110.293C58.2401 110.32 58.2934 110.533 58.4 110.48Z" fill="#565510"/>
<path d="M58.4536 112.534C60.8002 111.387 63.1469 110.24 65.4669 109.067C65.5736 109.014 65.4936 108.827 65.3603 108.907C63.0136 110.054 60.6669 111.2 58.3469 112.374C58.2403 112.4 58.3469 112.587 58.4536 112.534Z" fill="#565510"/>
<path d="M60.9066 113.547C62.9066 112.507 64.88 111.413 66.8266 110.267C66.9333 110.213 66.8266 110.027 66.72 110.107C64.7733 111.253 62.8 112.347 60.8 113.387C60.6933 113.44 60.8 113.6 60.9066 113.547Z" fill="#565510"/>
<path d="M63.1469 114.293C64.4003 113.573 65.6536 112.88 66.8803 112.16C66.987 112.107 66.8803 111.92 66.7736 112C65.5203 112.72 64.2669 113.413 63.0403 114.133C62.9336 114.187 63.0403 114.373 63.1469 114.293Z" fill="#565510"/>
<path d="M63.4931 116.267C65.6531 114.987 67.8398 113.84 70.1331 112.8C70.2398 112.747 70.1598 112.587 70.0265 112.64C67.7598 113.68 65.5465 114.827 63.3865 116.107C63.2798 116.16 63.3865 116.347 63.4931 116.267Z" fill="#565510"/>
<path d="M105.147 124.24C108.56 125.173 111.974 126.08 115.387 127.013C118.827 124.587 122.267 122.16 125.707 119.76C122.907 119.147 120.107 118.533 117.307 117.92C113.254 120 109.2 122.107 105.147 124.24Z" fill="white" stroke="#565510" stroke-width="0.4" stroke-miterlimit="10"/>
<path d="M38.7055 90.7156L38.3306 90.855L42.2884 101.504L42.6633 101.364L38.7055 90.7156Z" fill="#DEDC52"/>
<path d="M50.6827 92.4286L50.3076 92.2896L46.36 102.942L46.7351 103.081L50.6827 92.4286Z" fill="#DEDC52"/>
<path d="M40.0217 91.2739L39.0718 91.627L43.0296 102.276L43.9795 101.923L40.0217 91.2739Z" fill="white" stroke="#565510" stroke-width="0.75" stroke-miterlimit="10"/>
<path d="M47.5465 106.8H42.5331L40.4531 96.7734H49.0665L47.5465 106.8Z" fill="#DEDC52"/>
<path d="M19.2266 96.9868C20.6933 101.467 22.1866 105.973 23.6533 110.453C26.4533 113.44 29.4666 116.507 32.6933 119.573C34.2399 121.067 35.8133 122.48 37.3333 123.867C39.8399 123.04 42.4533 122.08 45.1999 120.933C47.1199 120.133 48.9599 119.307 50.6933 118.48C45.6799 113.787 40.6933 109.12 35.6799 104.427C33.3599 105.067 31.0666 105.707 28.7466 106.32C25.5733 103.227 22.3999 100.107 19.2266 96.9868Z" fill="white"/>
<path d="M23.6 110.533C27.9733 115.2 32.5333 119.68 37.28 123.946C37.3867 124.026 37.52 123.893 37.4133 123.813C32.6667 119.52 28.1067 115.066 23.7333 110.4C23.6533 110.293 23.4933 110.453 23.6 110.533Z" fill="#565510"/>
<path d="M23.8934 110.613C22.3734 106.053 20.8534 101.52 19.3334 96.96C19.2801 96.8267 19.0934 96.88 19.1467 97.0134C20.6667 101.573 22.1867 106.107 23.7067 110.667C23.7334 110.8 23.9467 110.747 23.8934 110.613Z" fill="#565510"/>
<path d="M19.5199 97.0934C24.1599 101.84 28.7999 106.613 33.4133 111.36C33.4933 111.44 33.6533 111.307 33.5466 111.227C28.9066 106.48 24.2666 101.707 19.6533 96.9601C19.5733 96.8534 19.4133 96.9868 19.5199 97.0934Z" fill="#565510"/>
<path d="M33.3865 111.654C34.5598 115.787 35.8665 119.867 37.3065 123.92C37.3598 124.054 37.5465 124 37.4931 123.867C36.0531 119.814 34.7465 115.734 33.5731 111.6C33.5465 111.467 33.3331 111.52 33.3865 111.654Z" fill="#565510"/>
<path d="M28.8269 106.587C30.9336 105.707 33.0669 104.987 35.2802 104.427C35.4136 104.4 35.3602 104.213 35.2269 104.24C33.0136 104.8 30.8802 105.52 28.7736 106.4C28.6402 106.453 28.6936 106.64 28.8269 106.587Z" fill="#565510"/>
<path d="M35.5999 104.507C40.2132 108.987 45.0399 113.28 49.9999 117.36C50.1065 117.44 50.2399 117.307 50.1332 117.227C45.1465 113.147 40.3465 108.853 35.7332 104.373C35.6532 104.293 35.5199 104.427 35.5999 104.507Z" fill="#565510"/>
<path d="M30.0001 107.707C31.3067 107.04 32.6667 106.48 34.0801 106.027C34.2134 106 34.1601 105.787 34.0267 105.84C32.6134 106.293 31.2267 106.88 29.8934 107.547C29.7867 107.6 29.8934 107.787 30.0001 107.707Z" fill="#565510"/>
<path d="M34.2136 106.054C38.3203 109.814 42.427 113.574 46.507 117.334C46.6136 117.414 46.747 117.28 46.6403 117.2C42.5336 113.44 38.427 109.68 34.347 105.92C34.267 105.84 34.1336 105.974 34.2136 106.054Z" fill="#565510"/>
<path d="M36.88 121.6C40.2134 120.48 43.4667 119.147 46.6134 117.574C46.72 117.52 46.64 117.334 46.5067 117.414C43.3867 118.987 40.16 120.32 36.8267 121.414C36.72 121.467 36.7734 121.654 36.88 121.6Z" fill="#565510"/>
<path d="M32.5331 106.587C36.4531 110.613 40.5331 114.48 44.7197 118.213C44.8264 118.293 44.9597 118.16 44.8531 118.08C40.6397 114.347 36.5864 110.48 32.6664 106.453C32.5864 106.347 32.4264 106.48 32.5331 106.587Z" fill="#565510"/>
<path d="M30.8535 107.306C33.0402 108.933 34.7202 111.36 36.5868 113.333C38.5068 115.386 40.4802 117.386 42.5068 119.333C42.5868 119.413 42.7468 119.28 42.6402 119.2C40.5068 117.12 38.4268 115.013 36.3735 112.826C34.6135 110.933 33.0135 108.666 30.9335 107.12C30.8535 107.067 30.7468 107.253 30.8535 107.306Z" fill="#565510"/>
<path d="M33.8402 113.093C35.6802 115.653 37.6802 118.053 39.8402 120.347C39.9202 120.453 40.0802 120.293 39.9735 120.213C37.8135 117.947 35.8402 115.52 34.0002 112.987C33.9202 112.88 33.7602 112.987 33.8402 113.093Z" fill="#565510"/>
<path d="M36.3736 120.347C39.3869 118.96 42.4803 117.707 45.6269 116.667C45.7603 116.614 45.7069 116.427 45.5736 116.48C42.4003 117.547 39.307 118.774 36.2936 120.187C36.1603 120.24 36.2403 120.4 36.3736 120.347Z" fill="#565510"/>
<path d="M35.6265 118.72C38.5065 117.6 41.3331 116.4 44.1598 115.147C44.2665 115.093 44.1865 114.933 44.0532 114.987C41.2531 116.24 38.4265 117.413 35.5731 118.533C35.4665 118.56 35.4931 118.747 35.6265 118.72Z" fill="#565510"/>
<path d="M35.1735 117.12C37.7069 116.107 40.1602 114.987 42.6135 113.76C42.7202 113.707 42.6402 113.52 42.5069 113.6C40.0802 114.8 37.6269 115.92 35.1202 116.934C34.9869 116.96 35.0402 117.147 35.1735 117.12Z" fill="#565510"/>
<path d="M32.96 110.693C34.3467 110.027 35.68 109.307 36.9867 108.533C37.0933 108.453 36.9867 108.293 36.88 108.373C35.5733 109.173 34.24 109.893 32.8533 110.533C32.7467 110.56 32.8533 110.747 32.96 110.693Z" fill="#565510"/>
<path d="M31.6533 109.387C32.88 108.694 34.1066 107.974 35.36 107.28C35.4666 107.227 35.36 107.04 35.2533 107.12C34.0266 107.814 32.8 108.534 31.5466 109.227C31.44 109.28 31.5466 109.467 31.6533 109.387Z" fill="#565510"/>
<path d="M34.8535 115.387C36.2935 114.64 37.7335 113.867 39.1468 113.04C39.2535 112.987 39.1468 112.8 39.0401 112.88C37.6268 113.707 36.2135 114.507 34.7468 115.227C34.6402 115.253 34.7468 115.44 34.8535 115.387Z" fill="#565510"/>
<path d="M34 112.96C35.0133 112.374 36.0533 111.814 37.12 111.28C37.2266 111.227 37.1466 111.04 37.0133 111.12C35.9466 111.654 34.9066 112.214 33.8933 112.8C33.7866 112.854 33.8933 113.014 34 112.96Z" fill="#565510"/>
<path d="M83.0131 101.893C84.5598 102.826 86.0798 103.733 87.6264 104.666C87.3864 105.813 87.0664 107.413 86.6398 109.306C84.9598 116.693 83.7064 122.186 82.5864 122.16C81.8664 122.16 80.8531 119.84 79.7598 107.946C80.8531 105.946 81.9198 103.92 83.0131 101.893Z" fill="#180E25"/>
<path d="M83.2001 109.12C82.4534 109.253 81.7867 109.52 81.1467 109.92C81.0401 110 81.1467 110.16 81.2534 110.08C81.8934 109.706 82.5601 109.44 83.2801 109.306C83.3867 109.28 83.3334 109.093 83.2001 109.12Z" fill="white"/>
<path d="M83.1468 110.907C82.4535 111.013 81.7868 111.2 81.1735 111.52C81.0668 111.573 81.1468 111.76 81.2801 111.68C81.8935 111.36 82.5335 111.173 83.2001 111.067C83.3335 111.093 83.2801 110.88 83.1468 110.907Z" fill="white"/>
<path d="M83.0931 112.426C82.5331 112.56 82.0264 112.746 81.5198 113.013C81.4131 113.066 81.5198 113.253 81.6264 113.173C82.1064 112.906 82.6131 112.72 83.1464 112.613C83.2531 112.586 83.1998 112.4 83.0931 112.426Z" fill="white"/>
<path d="M88.0798 105.787C87.4931 105.28 87.4665 104.507 87.4931 103.813C87.4931 103.68 87.3065 103.68 87.2798 103.813C87.2798 104.587 87.3065 105.413 87.9198 105.947C88.0531 106 88.1865 105.867 88.0798 105.787Z" fill="white"/>
<path d="M58.24 74.3199C58.2133 74.6132 58.08 75.7066 58.16 77.2266C58.1867 77.8132 58.3467 79.9999 59.36 82.9599C59.8667 84.4532 60.4267 85.7066 61.1467 87.0666C61.6 87.9466 63.44 91.4132 66.96 95.9465C70.1067 99.9999 72.9067 102.72 73.84 103.627C75.9467 105.627 77.8667 107.227 79.4667 108.427C79.8933 108.4 80.4533 108.32 81.0133 108.08C82.8267 107.307 83.52 105.547 83.68 105.12C83.0133 103.6 82.3467 102.08 81.68 100.533C80.72 98.2932 79.76 96.0532 78.8533 93.8399C79.52 94.4532 80.4533 95.3066 81.6267 96.3199C83.28 97.7332 84.4 98.6932 85.8133 99.6266C87.0133 100.427 88.7733 101.44 91.1733 102.293C91.9467 102.373 94.9067 102.533 97.0667 100.507C99.7067 98.0532 99.1467 94.1866 98.9333 92.5866C98.48 89.3332 96.8267 87.0932 96.2133 86.3465C93.2267 82.6399 90.56 83.4399 85.12 79.0132C83.9733 78.0799 84.5867 78.4532 81.04 75.2266C77.7867 72.2666 76.1067 70.7732 74.1333 69.4132C71.04 67.3066 69.2267 66.0799 66.5867 66.0532C65.8133 66.0532 63.5733 66.0532 61.6 67.5732C60 68.7999 59.3333 70.4532 59.0133 71.2266C58.5067 72.4532 58.3467 73.5466 58.24 74.3199Z" fill="white"/>
<path d="M79.3066 108.24C71.7332 102.213 64.6132 94.4265 60.5332 85.5732C58.4266 81.0132 57.0932 75.1732 59.4666 70.4265C60.6932 67.9732 63.0666 66.0532 65.8932 66.0532C68.5066 66.0799 71.0399 67.5199 73.2266 68.8799C77.9199 71.8399 81.7599 75.9199 85.4399 79.9999C85.5199 80.1065 85.6799 79.9465 85.5732 79.8665C82.0266 75.9199 78.3466 71.9999 73.8932 69.0665C70.1599 66.6132 65.2266 64.1865 61.3066 67.6532C57.6532 70.8532 57.5732 76.5332 58.6399 80.8799C59.9466 86.1332 62.9866 90.8532 66.2132 95.1199C69.9466 100.08 74.2932 104.533 79.1732 108.373C79.2532 108.48 79.4132 108.32 79.3066 108.24Z" fill="#565510"/>
<path d="M71.7332 78.9863C75.8932 87.2263 79.6798 95.6263 83.1198 104.186C83.1732 104.293 83.3598 104.24 83.3065 104.133C79.8665 95.573 76.0532 87.1463 71.8932 78.8796C71.8665 78.773 71.6798 78.8796 71.7332 78.9863Z" fill="#565510"/>
<path d="M79.5197 108.506C81.3597 108.186 82.3731 106.613 83.2264 105.12C83.2797 105.013 83.1197 104.906 83.0664 105.013C82.2397 106.48 81.2531 108.026 79.4664 108.32C79.3331 108.346 79.3864 108.533 79.5197 108.506Z" fill="#565510"/>
<path d="M78.9597 94.2668C82.1064 97.3868 85.7331 99.9468 89.733 101.813C89.8397 101.867 89.9464 101.707 89.8397 101.653C85.8397 99.7868 82.2397 97.2535 79.0931 94.1335C79.0131 94.0268 78.8797 94.1601 78.9597 94.2668Z" fill="#565510"/>
<path d="M88.6938 102.72C86.9071 102.613 85.1204 102.533 83.3338 102.426C82.8804 103.493 82.2404 105.013 81.5471 106.826C78.8004 113.893 76.7471 119.12 77.6538 119.733C78.2404 120.133 80.4004 118.8 87.9738 109.573C88.2138 107.28 88.4538 105.013 88.6938 102.72Z" fill="#180E25"/>
<path d="M84.907 109.733C85.4137 110.24 85.8403 110.853 86.1337 111.52C86.187 111.627 86.347 111.547 86.2937 111.413C85.9737 110.72 85.5737 110.133 85.0403 109.6C84.9603 109.52 84.827 109.653 84.907 109.733Z" fill="white"/>
<path d="M83.9469 111.253C84.4536 111.706 84.8803 112.239 85.2003 112.826C85.2536 112.933 85.4403 112.826 85.3603 112.719C85.0136 112.106 84.5869 111.573 84.0803 111.093C83.9736 111.039 83.8403 111.173 83.9469 111.253Z" fill="white"/>
<path d="M83.1472 112.56C83.5206 112.96 83.8406 113.386 84.0806 113.893C84.1339 114 84.3206 113.92 84.2406 113.786C83.9739 113.28 83.6539 112.826 83.2806 112.426C83.2006 112.32 83.0672 112.453 83.1472 112.56Z" fill="white"/>
<path d="M82.907 104.32C83.7336 104.24 84.2403 103.573 84.667 102.906C84.747 102.8 84.5603 102.693 84.507 102.8C84.1336 103.386 83.6803 104.026 82.9336 104.106C82.7736 104.133 82.7736 104.32 82.907 104.32Z" fill="white"/>
<path d="M82.8539 103.439C81.5206 106.773 80.1872 110.079 78.8806 113.44C78.8272 113.546 79.0139 113.6 79.0672 113.493C80.3739 110.16 81.6806 106.826 83.0406 103.493C83.0939 103.386 82.9072 103.333 82.8539 103.439Z" fill="white"/>
<path d="M83.2005 115.253C84.8538 113.546 86.3738 111.76 87.7605 109.84C87.8405 109.733 87.6538 109.626 87.6005 109.733C86.2138 111.626 84.6938 113.413 83.0671 115.093C82.9871 115.2 83.1205 115.333 83.2005 115.253Z" fill="white"/>
<path d="M88.3472 103.12C88.1872 103.36 87.9739 103.733 87.7872 104.213C87.3872 105.12 86.7739 106.453 86.9872 108.053C87.0405 108.427 87.1472 109.013 87.4939 109.707C91.1739 109.6 94.2405 109.493 96.4272 109.387C97.5205 109.333 106.134 108.96 116.934 107.813C119.121 107.573 121.787 107.28 125.067 106.107C128.534 104.88 130.667 103.413 131.254 102.987C132.054 102.4 133.921 100.987 135.787 98.6665C137.307 96.7465 138.321 95.4665 138.507 93.4932C138.641 91.7599 138.081 90.3732 137.707 89.6799C136.241 86.8799 133.334 85.9999 132.081 85.5999C130.987 85.2532 130.027 85.1465 128.641 85.0932C123.974 84.8799 120.241 85.4665 119.681 85.5732C110.614 87.0932 109.547 87.7065 105.334 88.1332C103.147 88.3732 99.9472 88.5865 96.0005 88.3465C94.6672 89.8665 92.2672 93.0665 91.5739 97.6799C91.3072 99.3865 91.3605 100.907 91.4939 102.16C90.4539 102.48 89.4139 102.8 88.3472 103.12Z" fill="white"/>
<path d="M88.267 103.2C87.2003 104.826 86.7469 106.666 86.9336 108.586C86.9336 108.72 87.1469 108.72 87.1469 108.586C86.9869 106.693 87.4136 104.88 88.4536 103.28C88.507 103.2 88.3203 103.093 88.267 103.2Z" fill="#565510"/>
<path d="M89.2004 102.906C99.2271 100.026 109.147 96.693 118.88 92.933C118.987 92.8796 118.96 92.693 118.827 92.7463C109.094 96.5063 99.1737 99.8396 89.1471 102.72C89.0137 102.746 89.0671 102.933 89.2004 102.906Z" fill="#565510"/>
<path d="M114.267 86.7196C117.094 86.0263 119.947 85.5729 122.827 85.3596C125.574 85.1463 128.401 84.9863 131.121 85.5196C133.681 86.0263 136.134 87.3063 137.494 89.5996C139.121 92.3196 138.241 94.9863 136.587 97.4129C133.654 101.68 129.307 104.746 124.374 106.24C118.961 107.866 113.094 108.293 107.467 108.72C100.987 109.226 94.4807 109.386 87.974 109.466C87.8407 109.466 87.8407 109.68 87.974 109.68C94.6674 109.6 101.334 109.44 108.001 108.906C114.027 108.426 120.534 108.026 126.214 105.84C130.854 104.053 134.961 100.693 137.467 96.3996C138.534 94.5596 138.987 92.5596 138.161 90.5329C137.307 88.4263 135.467 86.8263 133.387 85.9996C130.587 84.8796 127.494 84.9329 124.561 85.0663C121.067 85.2263 117.601 85.7063 114.187 86.5596C114.107 86.5596 114.161 86.7463 114.267 86.7196Z" fill="#565510"/>
<path d="M61.8401 46.6664C61.7868 46.373 61.6268 45.9464 61.3335 45.493C61.1201 45.173 60.8268 44.853 60.3201 44.4797C59.7868 44.0797 59.3601 43.893 57.8935 43.1997C56.4268 42.533 56.2935 42.4797 56.0535 42.2397C55.7868 41.9997 55.5201 41.493 54.9335 40.5064C54.8268 40.3197 54.6668 40.053 54.7735 39.7864C54.8268 39.653 54.9335 39.573 55.1468 39.4397C55.7601 39.0397 56.0535 38.933 56.0535 38.933C57.1468 38.4264 57.0935 38.453 57.1201 38.4264C57.8668 38.2397 58.5601 38.5597 59.1468 38.8264C59.6001 39.0397 59.7335 39.173 60.2935 39.5197C60.7468 39.813 61.4401 40.213 62.3201 40.613C62.2935 40.5597 61.9201 39.3064 62.2401 39.1197C62.5068 38.9864 63.1201 39.5464 63.4668 40.0264C63.9735 40.693 64.1068 41.3864 64.1335 41.573C64.3201 42.4264 64.6668 43.6797 65.5201 45.493C64.2935 45.893 63.0668 46.293 61.8401 46.6664Z" fill="white"/>
<path d="M89.2536 39.7061C88.9603 39.6794 88.4802 39.6261 87.9469 39.7328C86.6136 39.9461 85.6536 40.7194 85.0669 41.2794C83.1736 43.0394 82.1069 45.1461 80.8802 47.1461C80.1869 48.2928 79.3336 49.4928 77.6269 51.8661C76.3736 53.6261 74.5069 56.1061 71.9469 58.9594C71.3069 57.8661 70.6669 56.7194 70.0536 55.5461C68.1336 51.8394 66.6669 48.2394 65.5469 44.9328C65.3069 44.8528 64.4803 44.6128 63.5203 44.9594C62.2669 45.4394 61.8403 46.5861 61.7603 46.7461C61.8936 47.3328 62.0536 48.1861 62.2936 49.2261C63.2536 53.6794 63.7336 55.9461 64.3203 57.9994C64.8269 59.8128 65.2803 61.0128 66.1869 63.4394C66.7469 64.9594 67.2269 66.1328 68.3469 67.1994C68.8269 67.6794 69.5736 68.3461 70.6669 68.5861C71.6269 68.7994 72.6669 68.6394 74.4536 67.6794C76.0003 66.8528 77.3869 65.8128 80.2136 63.0394C81.2536 62.0261 82.5869 60.7194 84.3469 58.7194C86.7202 56.0261 87.9202 54.6928 88.5602 53.4661C90.5869 49.5994 90.4003 45.8661 90.3203 44.6928C90.2136 42.5594 89.6803 40.8261 89.2536 39.7061Z" fill="#DEDC52"/>
<path d="M88.4268 39.5996C84.5602 39.7863 82.5068 44.5329 80.6402 47.3063C77.9202 51.3596 75.1202 55.3596 71.9202 59.0396C71.8402 59.1463 71.9735 59.2796 72.0535 59.1729C74.7202 56.0796 77.1202 52.7729 79.4402 49.4129C80.6402 47.6529 81.8135 45.8929 82.9868 44.1329C84.3202 42.1329 85.7868 39.9196 88.4268 39.7863C88.5602 39.7863 88.5602 39.5996 88.4268 39.5996Z" fill="#565510"/>
<path d="M72.0271 58.9063C69.4404 54.453 67.3071 49.7863 65.6537 44.9063C65.6004 44.773 65.4137 44.8263 65.4671 44.9597C67.1204 49.8397 69.2804 54.5597 71.867 59.013C71.9204 59.1197 72.1071 59.013 72.0271 58.9063Z" fill="#565510"/>
<path d="M61.9202 46.5865C62.5069 45.3065 63.9202 44.6398 65.2802 44.9865C65.4136 45.0131 65.4669 44.8265 65.3336 44.7998C63.8936 44.4265 62.3736 45.1465 61.7602 46.4798C61.6802 46.6131 61.8669 46.6931 61.9202 46.5865Z" fill="#565510"/>
<path d="M61.9469 47.8664C62.8003 52.1864 63.6803 56.533 65.0936 60.7197C65.9736 63.3597 67.1203 67.5464 70.1069 68.5597C73.4403 69.7064 76.9336 66.213 79.1469 64.213C82.2403 61.413 85.0403 58.3197 87.5203 54.9597C87.6003 54.853 87.4136 54.7464 87.3603 54.853C85.1203 57.8664 82.6403 60.693 79.8936 63.253C77.5203 65.4664 73.1203 70.1064 69.5203 68.053C68.1069 67.253 67.3069 65.7064 66.6669 64.293C65.8669 62.5064 65.2269 60.6664 64.6669 58.7997C63.6003 55.1997 62.8536 51.493 62.1336 47.813C62.1069 47.7064 61.9203 47.7597 61.9469 47.8664Z" fill="#565510"/>
<path d="M62.4003 40.5863C62.3203 40.2396 62.267 39.8663 62.2403 39.5196C62.827 39.4396 63.2003 39.6529 63.387 40.1063C63.7337 40.5063 63.867 41.173 64.0537 41.653C64.4003 42.5863 64.7203 43.5463 64.9603 44.533C64.987 44.6663 65.1737 44.613 65.147 44.4796C64.8537 43.3596 64.507 42.293 64.107 41.2263C63.8403 40.533 63.547 39.5996 62.907 39.1463C61.787 38.373 62.107 40.1063 62.2137 40.6396C62.2403 40.7729 62.427 40.7196 62.4003 40.5863Z" fill="#565510"/>
<path d="M61.7337 45.9198C61.067 44.7732 60.0537 44.0532 58.8537 43.4932C58.187 43.1732 57.4137 42.9598 56.7737 42.6132C55.6803 41.9998 55.2537 41.0398 54.827 39.9198C54.7737 39.8132 54.587 39.8398 54.6403 39.9732C55.1203 41.2265 55.627 42.2665 56.8803 42.8798C58.667 43.7598 60.4803 44.1865 61.5737 46.0532C61.627 46.1332 61.787 46.0532 61.7337 45.9198Z" fill="#565510"/>
<path d="M55.1203 39.5195C55.707 39.5462 56.027 40.3995 56.4003 40.7729C56.7203 41.0929 57.1203 41.3329 57.5737 41.4662C57.707 41.4929 57.7603 41.3062 57.627 41.2795C56.907 41.0662 56.427 40.5862 56.027 39.9729C55.787 39.6529 55.547 39.3595 55.147 39.3329C54.987 39.3062 54.987 39.5195 55.1203 39.5195Z" fill="#565510"/>
<path d="M55.7869 39.0128C56.0802 38.9595 56.4536 39.2262 56.6402 39.4662C56.7202 39.5729 56.8002 39.6795 56.8802 39.7862C57.0136 39.9729 57.1736 40.1329 57.3602 40.2662C57.7069 40.5329 58.0802 40.6929 58.5069 40.7729C58.6402 40.7995 58.6936 40.6129 58.5603 40.5862C57.7602 40.4262 57.3069 39.9729 56.8269 39.3595C56.5336 39.0129 56.2402 38.7728 55.7602 38.8528C55.6269 38.8528 55.6802 39.0395 55.7869 39.0128Z" fill="#565510"/>
<path d="M57.0938 38.5063C57.6805 38.5063 58.0005 39.1996 58.3738 39.5196C58.7205 39.813 59.1205 40.0263 59.5472 40.1596C59.6805 40.1863 59.7338 39.9996 59.6005 39.973C58.9338 39.7596 58.4805 39.3863 58.0272 38.853C57.7605 38.5596 57.4938 38.293 57.0672 38.293C56.9605 38.3196 56.9605 38.5063 57.0938 38.5063Z" fill="#565510"/>
<path d="M59.0671 38.9062C60.0538 39.5195 61.0405 40.1062 62.0538 40.7195C62.1605 40.7995 62.2671 40.6129 62.1605 40.5595C61.1738 39.9462 60.1871 39.3595 59.1738 38.7462C59.0671 38.6662 58.9605 38.8529 59.0671 38.9062Z" fill="#565510"/>
<path d="M50.6936 36.6934L48.4002 36.5334L47.0936 38.4001L46.4269 36.0801L44.2402 35.2534L46.1069 33.9734L46.0536 31.6001L47.8936 33.1468L50.0536 32.5068L49.3069 34.7201L50.6936 36.6934Z" fill="#DEDC52"/>
<path d="M58.4269 32.9331L56.0269 31.8664L53.8136 33.2798L54.0536 30.5864L52.0536 28.8531L54.6136 28.2664L55.5736 25.7598L56.9069 28.0798L59.4936 28.2931L57.7869 30.3198L58.4269 32.9331Z" fill="#DEDC52"/>
<path d="M64.8804 33.2001L64.027 30.9601L61.707 30.2934L63.547 28.9067L63.3337 26.5601L65.3337 27.9467L67.5204 27.1734L66.907 29.4134L68.4804 31.2801H66.107L64.8804 33.2001Z" fill="#DEDC52"/>
<path d="M50.2402 25.4667L48.1602 25.0133L46.5868 26.48L46.3735 24.3467L44.5068 23.3067L46.4802 22.4533L46.8802 20.3467L48.2935 21.9467L50.4268 21.68L49.3335 23.5467L50.2402 25.4667Z" fill="#DEDC52"/>
<path d="M59.4933 22.8265L58.5066 20.7998L56.2666 20.4798L57.8933 18.9065L57.5199 16.6665L59.4933 17.7332L61.4933 16.6665L61.1199 18.9065L62.7466 20.4798L60.5066 20.7998L59.4933 22.8265Z" fill="#DEDC52"/>
<path d="M89.2533 39.7065C88.5333 40.2399 87.36 41.2532 86.4266 42.8799C85.4933 44.5065 85.2 46.0265 85.0933 46.9332C84.7733 51.0399 84.6133 54.7999 84.5333 58.1599C84.4266 62.6132 84.48 66.7199 84.6133 70.3732C84.7466 74.3199 84.9866 77.8666 85.2533 80.9066C85.44 81.3599 85.7333 81.9732 86.2133 82.6399C87.12 83.9466 88.2933 84.8799 90.32 85.9999C92.64 87.2532 95.6 88.8799 99.9466 89.2266C102.4 89.4132 104.267 89.1466 105.573 88.9332C108.96 88.3999 111.6 87.3332 113.333 86.4799C113.627 84.5866 113.947 82.2666 114.16 79.5732C114.56 74.5866 114.96 69.7866 114.107 63.9999C113.787 61.8399 113.387 60.1599 113.2 57.0399C113.067 54.6665 113.147 52.6932 113.227 51.4132C112.453 50.7465 111.227 49.8132 109.547 49.0665C108.427 48.5599 107.573 48.3465 105.947 47.9199C102.32 47.0132 102.133 47.3332 100.267 46.6932C99.4933 46.4265 97.6266 45.7599 95.7066 44.2399C94.1066 42.9865 93.6533 42.0532 91.84 40.9332C90.8 40.2665 89.8666 39.9199 89.2533 39.7065Z" fill="#DEDC52"/>
<path d="M89.1999 39.7865C92.9066 41.9998 95.8933 45.3065 100.08 46.6665C104.507 48.1065 109.627 47.9998 113.147 51.4398C113.227 51.5198 113.387 51.3865 113.28 51.3065C110.08 48.1865 105.547 47.9198 101.467 46.8531C96.6399 45.5998 93.4399 42.0798 89.3066 39.5998C89.1999 39.5465 89.0933 39.7331 89.1999 39.7865Z" fill="#565510"/>
<path d="M84.9868 46.933C84.1335 58.2397 84.1868 69.5997 85.1735 80.9064C85.1735 81.0397 85.3868 81.0397 85.3868 80.9064C84.4268 69.5997 84.3468 58.2397 85.2001 46.933C85.2001 46.7997 84.9868 46.7997 84.9868 46.933Z" fill="#565510"/>
<path d="M85.76 82.2665C88.8534 85.6798 93.0133 88.0265 97.5467 88.9598C102.667 89.9732 107.413 88.7198 112.267 87.0932C112.4 87.0398 112.347 86.8532 112.213 86.9065C107.413 88.5332 102.667 89.7865 97.6 88.7732C93.0933 87.8665 88.9867 85.5465 85.8934 82.1332C85.8134 82.0265 85.68 82.1865 85.76 82.2665Z" fill="#565510"/>
<path d="M112.907 55.8933C114.747 65.9733 114.854 76.2933 113.254 86.4266C113.227 86.5599 113.414 86.6133 113.44 86.4799C115.04 76.3199 114.934 65.9733 113.094 55.8399C113.067 55.7066 112.88 55.7599 112.907 55.8933Z" fill="#565510"/>
<path d="M109.44 89.466C108.187 89.9193 108.427 90.746 106.667 91.786C106.347 91.9727 105.733 92.3193 105.067 92.9593C104.48 93.546 104.373 93.8393 104.347 94.026C104.24 94.7727 104.88 95.386 105.013 95.5193C104.587 96.266 104.213 96.8527 103.973 97.2527C103.067 98.6927 102.613 99.2527 102.747 100.026C102.8 100.373 102.987 100.639 103.12 100.799C103.573 100.853 104.213 100.906 104.987 100.933C106.427 100.986 107.147 101.013 107.76 100.719C108.587 100.346 108.987 99.6793 109.627 98.6127C110.027 97.946 110.293 97.226 110.827 95.8393C111.36 94.4527 111.627 93.5193 111.813 92.826C112.293 91.0927 112.533 90.2393 112.213 89.8127C111.733 89.1193 110.347 89.1193 109.44 89.466Z" fill="white"/>
<path d="M108.187 57.7596C108.747 56.7996 109.44 55.7862 110.267 54.7196C111.28 53.4129 112.294 52.2929 113.254 51.3862C115.44 53.4129 117.014 55.3596 118.107 56.8262C119.12 58.2129 121.734 61.9462 123.6 67.5196C124.374 69.7862 124.827 71.7596 125.094 73.2262C125.014 73.8662 124.827 74.7729 124.427 75.8396C123.654 77.9196 122.587 79.1729 121.174 80.8529C119.467 82.9062 117.84 85.0129 116.134 87.0396C115.2 88.1595 113.76 89.8662 112 91.9995C111.84 91.7062 111.547 91.2262 110.987 90.8262C110 90.1062 108.96 90.1596 108.64 90.1862C109.787 87.7596 111.014 85.2795 112.294 82.7729C113.92 79.5996 115.574 76.5862 117.227 73.6796C116.294 72.1062 115.36 70.5062 114.427 68.9062C112.24 65.1729 110.16 61.4396 108.187 57.7596Z" fill="#DEDC52"/>
<path d="M114.08 52.1864C119.28 57.5998 122.907 64.3198 124.64 71.6264C124.667 71.7598 124.853 71.7064 124.827 71.5731C123.093 64.2398 119.44 57.4931 114.213 52.0531C114.133 51.9464 114 52.1064 114.08 52.1864Z" fill="#565510"/>
<path d="M108 58.2396C110.907 63.2529 113.813 68.2929 116.72 73.3063C116.773 73.4129 116.96 73.3063 116.88 73.1996C113.973 68.1863 111.067 63.1463 108.16 58.1329C108.107 58.0263 107.947 58.1063 108 58.2396Z" fill="#565510"/>
<path d="M116.907 73.7595C114 79.0662 111.307 84.4795 108.773 89.9729C108.72 90.0795 108.88 90.1862 108.933 90.0795C111.467 84.5862 114.187 79.1729 117.067 73.8662C117.147 73.7595 116.987 73.6528 116.907 73.7595Z" fill="#565510"/>
<path d="M108.96 90.4261C110.187 90.3461 111.307 90.9861 111.84 92.0794C111.893 92.1861 112.08 92.1061 112 91.9727C111.413 90.8261 110.213 90.1594 108.933 90.2394C108.827 90.2394 108.827 90.4261 108.96 90.4261Z" fill="#565510"/>
<path d="M124.96 72.9062C124.667 76.7728 121.867 79.7595 119.547 82.6395C117.04 85.7062 114.56 88.7728 112.053 91.8395C111.973 91.9461 112.107 92.0795 112.187 91.9728C115.013 88.5061 117.84 85.0128 120.693 81.5461C122.773 78.9861 124.907 76.2928 125.173 72.9062C125.173 72.7728 124.987 72.7728 124.96 72.9062Z" fill="#565510"/>
<path d="M108.187 90.8262C107.093 91.3862 106.053 92.0528 105.093 92.8262C104.56 93.2795 103.973 93.8928 104.427 94.5861C104.507 94.6928 104.667 94.5861 104.587 94.4795C103.973 93.5461 105.68 92.5595 106.293 92.1595C106.933 91.7328 107.6 91.3328 108.267 90.9862C108.4 90.9328 108.293 90.7728 108.187 90.8262Z" fill="#565510"/>
<path d="M105.813 94.2397C105.36 94.853 101.36 100.826 103.147 100.853C103.28 100.853 103.28 100.666 103.147 100.64C102.347 100.613 104 97.3864 104.213 97.0397C104.747 96.0797 105.333 95.173 106 94.3197C106.053 94.2397 105.893 94.1597 105.813 94.2397Z" fill="#565510"/>
<path d="M111.733 92.7731C111.173 93.9731 110.933 95.2531 110.507 96.5064C109.947 98.1331 108.987 99.5197 107.68 100.64C107.573 100.72 107.733 100.853 107.813 100.773C108.907 99.8397 109.787 98.7197 110.373 97.3864C111.013 95.9197 111.2 94.3197 111.893 92.8797C111.973 92.7464 111.787 92.6664 111.733 92.7731Z" fill="#565510"/>
<path d="M104.16 100.586C105.014 99.7061 105.76 98.7461 106.374 97.6528C106.427 97.5461 106.267 97.4395 106.214 97.5461C105.627 98.6128 104.88 99.5728 104.027 100.426C103.92 100.533 104.054 100.666 104.16 100.586Z" fill="#565510"/>
<path d="M105.04 101.013C106.4 100.159 107.28 98.8528 108.107 97.5195C108.16 97.4128 108 97.3062 107.947 97.4128C107.147 98.7195 106.294 100.026 104.96 100.853C104.827 100.906 104.934 101.066 105.04 101.013Z" fill="#565510"/>
<path d="M106.426 100.933C106.933 100.826 107.306 100.346 107.653 99.9995C108.08 99.5462 108.453 99.0662 108.8 98.5595C108.88 98.4529 108.693 98.3462 108.64 98.4529C108.346 98.9062 108 99.3329 107.626 99.7329C107.306 100.106 106.88 100.64 106.373 100.746C106.24 100.773 106.293 100.96 106.426 100.933Z" fill="#565510"/>
<path d="M96.7737 41.173C96.4537 41.573 96.267 42.133 96.2404 42.213C95.9737 43.013 96.0004 43.6797 96.0004 44.0264C96.027 44.3731 96.0537 45.1197 96.4804 45.9464C97.1204 47.2264 98.2404 47.8131 98.587 47.9997C98.9337 48.1864 99.2537 48.2931 99.467 48.3464C99.547 48.5064 99.627 48.6931 99.547 48.7997C99.4137 49.0131 98.8537 48.6931 98.6137 48.9597C98.4804 49.1197 98.507 49.4397 98.6404 49.6264C98.6937 49.7064 98.8537 49.8664 99.5737 49.8931C99.947 49.8931 100.56 49.9197 101.28 49.6264C101.814 49.4131 102.187 49.1197 102.48 48.8531C102.667 47.8931 102.934 47.1997 103.174 46.7197C103.36 46.3464 103.44 46.293 103.547 45.973C103.894 45.1197 103.84 44.3731 103.814 43.8931C103.787 43.2531 103.734 42.6397 103.36 41.9464C102.907 41.093 102.214 40.6664 102 40.5597C100.32 39.493 97.787 39.8664 96.7737 41.173Z" fill="white"/>
<path d="M96.3203 41.9462C96.427 41.6528 96.6937 41.1195 97.2803 40.6928C98.107 40.0795 99.1737 39.9462 100.027 40.2395C100.8 40.5062 101.254 41.0395 101.68 41.5462C102.24 42.2128 102.8 43.2262 103.014 43.5995C103.36 44.2395 103.494 44.5595 103.814 44.6128C104.214 44.6928 104.667 44.3195 104.88 43.9462C105.094 43.5462 105.04 43.1462 104.96 42.5328C104.854 41.8395 104.747 41.2528 104.374 40.7462C103.947 40.1595 103.574 40.2662 102.347 39.6528C100.987 38.9595 99.8937 38.0528 99.707 37.9195C98.907 37.2528 98.6137 36.8795 97.9203 36.7195C97.7337 36.6929 97.1737 36.5862 96.507 36.8262C95.387 37.2529 94.987 38.3995 94.8537 38.7728C94.667 39.3062 94.4003 40.1062 94.827 40.8795C95.227 41.7062 96.1603 41.9195 96.3203 41.9462Z" fill="#180E25"/>
<path d="M96.4537 41.4128C95.4937 43.6262 95.8403 46.3728 97.9737 47.7595C99.867 48.9862 102.294 48.3728 103.44 46.4795C103.494 46.3728 103.334 46.2662 103.28 46.3728C102.187 48.1862 99.8937 48.7462 98.107 47.5995C96.0537 46.2928 95.7337 43.6262 96.6403 41.5195C96.667 41.3862 96.507 41.2795 96.4537 41.4128Z" fill="#565510"/>
<path d="M96.3469 41.8396C93.9736 41.3063 94.6403 37.8396 96.3469 36.9863C98.0003 36.1596 99.0403 37.6529 100.214 38.4796C102.16 39.8396 105.814 40.5329 104.64 43.8396C104.587 43.9729 104.8 44.0263 104.827 43.8929C105.387 42.3196 104.64 40.8263 103.307 39.9196C102.24 39.1729 100.987 38.8796 99.9736 38.0796C99.2803 37.5463 98.6669 36.7729 97.7336 36.5863C94.6936 35.9996 93.2269 41.3596 96.2669 42.0529C96.4269 42.0796 96.4803 41.8929 96.3469 41.8396Z" fill="#180E25"/>
<path d="M96.8804 41.0129C98.2937 40.2396 99.8937 39.8929 101.227 41.0396C102.08 41.7863 102.48 42.7996 102.96 43.7863C103.414 44.6929 104.027 45.1463 104.694 44.1063C104.774 43.9996 104.587 43.8929 104.534 43.9996C103.627 45.3863 102.96 43.2529 102.774 42.8796C102.587 42.4796 102.374 42.1063 102.134 41.7329C101.76 41.2263 101.307 40.7196 100.747 40.4263C99.4137 39.7063 98.0271 40.1596 96.7737 40.8263C96.6671 40.9063 96.7737 41.0663 96.8804 41.0129Z" fill="#565510"/>
<path d="M98.9603 41.3865C97.947 42.3198 97.2537 44.0265 97.6537 45.3865C97.6803 45.5198 97.8936 45.4665 97.8403 45.3331C97.4403 44.0265 98.1337 42.4265 99.0937 41.5198C99.2003 41.4398 99.067 41.3065 98.9603 41.3865Z" fill="#565510"/>
<path d="M100.174 42.8991C100.229 42.6548 100.18 42.4359 100.065 42.4102C99.9496 42.3845 99.8122 42.5618 99.7576 42.8061C99.703 43.0505 99.752 43.2694 99.8669 43.295C99.9819 43.3207 100.119 43.1435 100.174 42.8991Z" fill="#565510"/>
<path d="M99.947 41.6262C100.347 41.5195 100.747 41.7062 100.934 42.0528C100.987 42.1595 101.174 42.0528 101.094 41.9462C100.854 41.5195 100.347 41.2795 99.8937 41.4128C99.787 41.4662 99.8403 41.6528 99.947 41.6262Z" fill="#565510"/>
<path d="M99.3604 48.3464C99.3871 48.5064 99.4137 48.6397 99.4404 48.7997C99.4671 48.933 99.6538 48.8797 99.6271 48.7464C99.6004 48.5864 99.5737 48.4531 99.5471 48.2931C99.5471 48.1597 99.3604 48.2131 99.3604 48.3464Z" fill="#565510"/>
<path d="M98.6137 48.7195C98.2937 49.4661 98.9871 49.8928 99.6537 49.9461C100.747 50.0261 101.787 49.5728 102.587 48.8795C102.694 48.7995 102.534 48.6395 102.454 48.7461C102 49.1461 101.494 49.4395 100.907 49.6261C100.507 49.7328 98.2671 50.0795 98.8004 48.8261C98.8271 48.6928 98.6671 48.5861 98.6137 48.7195Z" fill="#565510"/>
<path d="M97.631 42.6848C97.6856 42.4405 97.6366 42.2216 97.5216 42.1959C97.4066 42.1702 97.2692 42.3474 97.2146 42.5918C97.16 42.8361 97.209 43.055 97.324 43.0807C97.439 43.1064 97.5764 42.9291 97.631 42.6848Z" fill="#565510"/>
</svg>
