<svg width="20" height="20" viewBox="0 0 20 20" fill="none" xmlns="http://www.w3.org/2000/svg">
<path d="M7.5 7C6.67157 7 6 6.32843 6 5.5C6 4.67157 6.67157 4 7.5 4C8.32843 4 9 4.67157 9 5.5C9 6.32843 8.32843 7 7.5 7Z" fill="#C8C5CB"/>
<path d="M7.5 11.5C6.67157 11.5 6 10.8284 6 10C6 9.17157 6.67157 8.5 7.5 8.5C8.32843 8.5 9 9.17157 9 10C9 10.8284 8.32843 11.5 7.5 11.5Z" fill="#C8C5CB"/>
<path d="M7.5 16C6.67157 16 6 15.3284 6 14.5C6 13.6716 6.67157 13 7.5 13C8.32843 13 9 13.6716 9 14.5C9 15.3284 8.32843 16 7.5 16Z" fill="#C8C5CB"/>
<path d="M12.5 7C11.6716 7 11 6.32843 11 5.5C11 4.67157 11.6716 4 12.5 4C13.3284 4 14 4.67157 14 5.5C14 6.32843 13.3284 7 12.5 7Z" fill="#C8C5CB"/>
<path d="M12.5 11.5C11.6716 11.5 11 10.8284 11 10C11 9.17157 11.6716 8.5 12.5 8.5C13.3284 8.5 14 9.17157 14 10C14 10.8284 13.3284 11.5 12.5 11.5Z" fill="#C8C5CB"/>
<path d="M12.5 16C11.6716 16 11 15.3284 11 14.5C11 13.6716 11.6716 13 12.5 13C13.3284 13 14 13.6716 14 14.5C14 15.3284 13.3284 16 12.5 16Z" fill="#C8C5CB"/>
</svg>
