<svg width="22" height="22" viewBox="0 0 22 22" fill="none" xmlns="http://www.w3.org/2000/svg">
    <path d="M8.85818 15.5833H13.1417M11 2.75V3.66667M16.8336 5.16637L16.1854 5.81455M19.25 11H18.3333M3.66667 11H2.75M5.8145 5.81455L5.16632 5.16637M7.75904 14.2409C5.96914 12.451 5.96914 9.54902 7.75904 7.75912C9.54895 5.96921 12.451 5.96921 14.2409 7.75912C16.0308 9.54902 16.0308 12.451 14.2409 14.2409L13.7393 14.7424C13.1592 15.3226 12.8333 16.1094 12.8333 16.9299V17.4167C12.8333 18.4292 12.0125 19.25 11 19.25C9.98743 19.25 9.16662 18.4292 9.16662 17.4167V16.9299C9.16662 16.1094 8.8407 15.3226 8.26055 14.7424L7.75904 14.2409Z"
          stroke="white" stroke-linecap="round" stroke-linejoin="round"/>
</svg>
