<svg width="32" height="32" viewBox="0 0 32 32" fill="none" xmlns="http://www.w3.org/2000/svg">
<path d="M27.0237 4.97631L28.0844 3.91565V3.91565L27.0237 4.97631ZM8.66679 28.0473V29.5473C9.06461 29.5473 9.44614 29.3893 9.72745 29.108L8.66679 28.0473ZM4.00012 28.0473H2.50012C2.50012 28.8757 3.17169 29.5473 4.00012 29.5473V28.0473ZM4.00012 23.2859L2.93946 22.2252C2.65816 22.5065 2.50012 22.8881 2.50012 23.2859H4.00012ZM23.3704 6.03697C24.0863 5.32101 25.2471 5.32101 25.9631 6.03697L28.0844 3.91565C26.1969 2.02812 23.1366 2.02812 21.249 3.91565L23.3704 6.03697ZM25.9631 6.03697C26.679 6.75293 26.679 7.91373 25.9631 8.6297L28.0844 10.751C29.9719 8.86348 29.9719 5.80318 28.0844 3.91565L25.9631 6.03697ZM25.9631 8.6297L7.60613 26.9866L9.72745 29.108L28.0844 10.751L25.9631 8.6297ZM8.66679 26.5473H4.00012V29.5473H8.66679V26.5473ZM21.249 3.91565L2.93946 22.2252L5.06078 24.3465L23.3704 6.03697L21.249 3.91565ZM2.50012 23.2859V28.0473H5.50012V23.2859H2.50012ZM19.249 8.03697L23.9631 12.751L26.0844 10.6297L21.3704 5.91565L19.249 8.03697Z" fill="#6A3EA1"/>
</svg>
