<svg width="22" height="22" viewBox="0 0 22 22" fill="none" xmlns="http://www.w3.org/2000/svg">
<path d="M16.9167 6.41667V17.4167H17.9167V6.41667H16.9167ZM15.5834 18.75H6.41671V19.75H15.5834V18.75ZM5.08337 17.4167V6.41667H4.08337V17.4167H5.08337ZM6.41671 5.08333H8.25004V4.08333H6.41671V5.08333ZM13.75 5.08333H15.5834V4.08333H13.75V5.08333ZM6.41671 18.75C5.68033 18.75 5.08337 18.153 5.08337 17.4167H4.08337C4.08337 18.7053 5.12804 19.75 6.41671 19.75V18.75ZM16.9167 17.4167C16.9167 18.153 16.3198 18.75 15.5834 18.75V19.75C16.872 19.75 17.9167 18.7053 17.9167 17.4167H16.9167ZM17.9167 6.41667C17.9167 5.128 16.872 4.08333 15.5834 4.08333V5.08333C16.3198 5.08333 16.9167 5.68029 16.9167 6.41667H17.9167ZM5.08337 6.41667C5.08337 5.68029 5.68033 5.08333 6.41671 5.08333V4.08333C5.12804 4.08333 4.08337 5.128 4.08337 6.41667H5.08337ZM10.0834 3.25H11.9167V2.25H10.0834V3.25ZM11.9167 5.91667H10.0834V6.91667H11.9167V5.91667ZM10.0834 5.91667C9.34699 5.91667 8.75004 5.31971 8.75004 4.58333H7.75004C7.75004 5.872 8.79471 6.91667 10.0834 6.91667V5.91667ZM13.25 4.58333C13.25 5.31971 12.6531 5.91667 11.9167 5.91667V6.91667C13.2054 6.91667 14.25 5.872 14.25 4.58333H13.25ZM11.9167 3.25C12.6531 3.25 13.25 3.84695 13.25 4.58333H14.25C14.25 3.29467 13.2054 2.25 11.9167 2.25V3.25ZM10.0834 2.25C8.79471 2.25 7.75004 3.29467 7.75004 4.58333H8.75004C8.75004 3.84695 9.34699 3.25 10.0834 3.25V2.25Z" fill="white"/>
</svg>
