<svg width="22" height="22" viewBox="0 0 22 22" fill="none" xmlns="http://www.w3.org/2000/svg">
<path d="M2.75 2.75H4.58333L4.95 4.58333M6.41667 11.9167H15.5833L19.25 4.58333H4.95M6.41667 11.9167L4.95 4.58333M6.41667 11.9167L4.31485 14.0185C3.73738 14.596 4.14637 15.5833 4.96303 15.5833H15.5833M15.5833 15.5833C14.5708 15.5833 13.75 16.4041 13.75 17.4167C13.75 18.4292 14.5708 19.25 15.5833 19.25C16.5959 19.25 17.4167 18.4292 17.4167 17.4167C17.4167 16.4041 16.5959 15.5833 15.5833 15.5833ZM8.25 17.4167C8.25 18.4292 7.42919 19.25 6.41667 19.25C5.40414 19.25 4.58333 18.4292 4.58333 17.4167C4.58333 16.4041 5.40414 15.5833 6.41667 15.5833C7.42919 15.5833 8.25 16.4041 8.25 17.4167Z" stroke="white" stroke-linecap="round" stroke-linejoin="round"/>
</svg>
