<svg width="24" height="24" viewBox="0 0 24 24" fill="none" xmlns="http://www.w3.org/2000/svg">
<path d="M4.81033 20C5.33669 20 5.80682 19.6707 5.98673 19.1761L7.2272 15.7656H13.781L15.0143 19.1746C15.1935 19.67 15.6639 20 16.1907 20C17.0653 20 17.67 19.1255 17.3612 18.3073L12.2899 4.86821C12.0928 4.34577 11.5927 4 11.0343 4H9.96565C9.40725 4 8.90721 4.34577 8.71006 4.86821L3.63915 18.3062C3.33019 19.125 3.93522 20 4.81033 20ZM7.9645 13.7344L10.4386 6.90625H10.5696L13.0437 13.7344H7.9645Z" fill="#180E25"/>
<path d="M15.7349 10C15.9398 10 16.1237 9.87414 16.1978 9.68314L16.6909 8.41211H19.3124L19.8027 9.6825C19.8765 9.87382 20.0604 10 20.2655 10C20.6169 10 20.857 9.64465 20.7257 9.31863L18.7396 4.38432C18.6462 4.15211 18.421 4 18.1706 4H17.8294C17.579 4 17.3538 4.15211 17.2604 4.38432L15.2744 9.31821C15.1431 9.64444 15.3833 10 15.7349 10ZM16.9858 7.65039L17.9754 5.08984H18.0279L19.0175 7.65039H16.9858Z" fill="#180E25"/>
</svg>
